<svg width="51" height="51" viewBox="0 0 51 51" fill="none" xmlns="http://www.w3.org/2000/svg">
<path fill-rule="evenodd" clip-rule="evenodd" d="M38.6146 2.125C39.7417 2.125 40.8227 2.57276 41.6198 3.3698L47.6302 9.3802C48.4273 10.1772 48.875 11.2582 48.875 12.3854V42.5C48.875 46.0209 46.0209 48.875 42.5 48.875H8.5C4.97919 48.875 2.125 46.0209 2.125 42.5V8.5C2.125 4.97919 4.97919 2.125 8.5 2.125H38.6146ZM8.5 6.375C7.3264 6.375 6.375 7.3264 6.375 8.5V42.5C6.375 43.6736 7.3264 44.625 8.5 44.625H10.625V31.875C10.625 28.3541 13.4792 25.5 17 25.5H34C37.5209 25.5 40.375 28.3541 40.375 31.875V44.625H42.5C43.6736 44.625 44.625 43.6736 44.625 42.5V14.5104C44.625 13.3832 44.1773 12.3022 43.3802 11.5052L39.4948 7.6198C38.6977 6.82276 37.6167 6.375 36.4896 6.375H36.125V10.625C36.125 14.1458 33.2709 17 29.75 17H21.25C17.7292 17 14.875 14.1458 14.875 10.625V6.375H8.5ZM36.125 44.625V31.875C36.125 30.7014 35.1736 29.75 34 29.75H17C15.8264 29.75 14.875 30.7014 14.875 31.875V44.625H36.125ZM19.125 6.375H31.875V10.625C31.875 11.7986 30.9236 12.75 29.75 12.75H21.25C20.0764 12.75 19.125 11.7986 19.125 10.625V6.375Z" fill="#552E1E"/>
</svg>
