<svg width="48" height="54" viewBox="0 0 48 54" fill="none" xmlns="http://www.w3.org/2000/svg">
<path d="M3.375 0C1.51611 0 0 1.51611 0 3.375V30.375C0 38.8125 6.13037 44.7056 11.6279 48.3706C17.1255 52.0356 22.5571 53.8286 22.5571 53.8286C23.2559 54.0659 23.9941 54.0659 24.6929 53.8286C24.6929 53.8286 30.1245 52.0356 35.6221 48.3706C41.1196 44.7056 47.25 38.8125 47.25 30.375V3.375C47.25 1.51611 45.7339 0 43.875 0H3.375ZM6.75 6.75H40.5V30.375C40.5 35.4375 36.5054 39.6694 31.8779 42.7544C27.7778 45.4834 24.5215 46.5645 23.625 46.894C22.7285 46.5645 19.4722 45.4834 15.3721 42.7544C10.7446 39.6694 6.75 35.4375 6.75 30.375V6.75ZM10.125 10.125V30.375C10.125 33.75 13.0518 37.1514 17.2441 39.9463C20.395 42.0425 22.2144 42.5962 23.625 43.1499V10.125H10.125Z" fill="#004D43"/>
</svg>
