<svg width="47" height="47" viewBox="0 0 47 47" fill="none" xmlns="http://www.w3.org/2000/svg">
<path d="M5.875 10.7708C5.875 27.535 19.465 41.125 36.2292 41.125C36.9855 41.125 37.7353 41.0974 38.4779 41.0429C39.33 40.9805 39.7559 40.9493 40.1439 40.7261C40.465 40.5412 40.7696 40.2134 40.9305 39.8795C41.125 39.4765 41.125 39.0063 41.125 38.0661V32.5489C41.125 31.7581 41.125 31.3627 40.9948 31.0239C40.88 30.7245 40.6932 30.458 40.4511 30.2476C40.1772 30.0095 39.8055 29.8744 39.0625 29.6041L32.7825 27.3205C31.9179 27.0062 31.4855 26.8489 31.0754 26.8756C30.7137 26.8991 30.3657 27.0227 30.07 27.2322C29.7347 27.4697 29.4982 27.8641 29.0249 28.6532L27.4167 31.3333C22.2273 28.9831 18.0204 24.7708 15.6667 19.5833L18.3469 17.9752C19.1358 17.5019 19.5302 17.2652 19.7678 16.9299C19.9774 16.6342 20.1009 16.2862 20.1244 15.9246C20.1511 15.5144 19.9938 15.0822 19.6795 14.2176L17.3959 7.93754C17.1256 7.19445 16.9905 6.82289 16.7524 6.54886C16.5421 6.30679 16.2755 6.12009 15.9761 6.00513C15.6372 5.875 15.2419 5.875 14.4512 5.875H8.93394C7.99368 5.875 7.52354 5.875 7.12046 6.06936C6.7866 6.23036 6.45886 6.53498 6.27391 6.85618C6.05062 7.24401 6.01943 7.67005 5.95703 8.52214C5.90267 9.2646 5.875 10.0145 5.875 10.7708Z" stroke="#1F1C53" stroke-width="3" stroke-linecap="round" stroke-linejoin="round"/>
</svg>
