<svg width="29" height="29" viewBox="0 0 29 29" fill="none" xmlns="http://www.w3.org/2000/svg">
<path d="M4.83398 7.25008V22.9584C4.83398 24.9605 6.45696 26.5834 8.45898 26.5834H20.5423C22.5444 26.5834 24.1673 24.9605 24.1673 22.9584V10.8751C24.1673 8.87305 22.5444 7.25008 20.5423 7.25008H4.83398ZM4.83398 7.25008V6.04175" stroke="white" stroke-width="3"/>
<mask id="path-2-inside-1_3534_1262" fill="white">
<path d="M21.7507 7.25007V8.15632H22.6569V7.25007H21.7507ZM6.12819 8.15632H21.7507V6.34382H6.12819V8.15632ZM22.6569 7.25007V5.20318H20.8444V7.25007H22.6569ZM18.8641 1.91366L5.817 3.77753L6.07332 5.5718L19.1203 3.70794L18.8641 1.91366ZM5.817 3.77753C4.73294 3.93239 3.92773 4.86081 3.92773 5.95586H5.74023C5.74023 5.76279 5.8822 5.59911 6.07332 5.5718L5.817 3.77753ZM22.6569 5.20318C22.6569 3.18102 20.8659 1.62768 18.8641 1.91366L19.1203 3.70794C20.0303 3.57796 20.8444 4.28401 20.8444 5.20318H22.6569ZM6.12819 6.34382C5.91393 6.34382 5.74023 6.17012 5.74023 5.95586H3.92773C3.92773 7.17114 4.91291 8.15632 6.12819 8.15632V6.34382Z"/>
</mask>
<path d="M21.7507 7.25007V8.15632H22.6569V7.25007H21.7507ZM6.12819 8.15632H21.7507V6.34382H6.12819V8.15632ZM22.6569 7.25007V5.20318H20.8444V7.25007H22.6569ZM18.8641 1.91366L5.817 3.77753L6.07332 5.5718L19.1203 3.70794L18.8641 1.91366ZM5.817 3.77753C4.73294 3.93239 3.92773 4.86081 3.92773 5.95586H5.74023C5.74023 5.76279 5.8822 5.59911 6.07332 5.5718L5.817 3.77753ZM22.6569 5.20318C22.6569 3.18102 20.8659 1.62768 18.8641 1.91366L19.1203 3.70794C20.0303 3.57796 20.8444 4.28401 20.8444 5.20318H22.6569ZM6.12819 6.34382C5.91393 6.34382 5.74023 6.17012 5.74023 5.95586H3.92773C3.92773 7.17114 4.91291 8.15632 6.12819 8.15632V6.34382Z" fill="#1C274D"/>
<path d="M18.8641 1.91366L20.349 1.70146L17.3791 2.12576L18.8641 1.91366ZM5.817 3.77753L7.30192 3.5654L4.33207 3.98965L5.817 3.77753ZM18.9923 2.8108L20.4772 2.5986L20.349 1.70146L18.8641 1.91366L17.3791 2.12586L17.5074 3.023L18.9923 2.8108ZM5.94516 4.67466L7.43008 4.46254L7.30193 3.56541L5.817 3.77753L4.33207 3.98965L4.46023 4.88679L5.94516 4.67466ZM6.12819 6.34382H4.62819V8.15632H6.12819H7.62819V6.34382H6.12819ZM22.6569 5.20318V3.70318H20.8444V5.20318V6.70318H22.6569V5.20318ZM5.817 3.77753L4.33208 3.98966L4.5884 5.78394L6.07332 5.5718L7.55825 5.35967L7.30192 3.5654L5.817 3.77753ZM19.1203 3.70794L20.6053 3.49584L20.349 1.70156L18.8641 1.91366L17.3791 2.12576L17.6354 3.92004L19.1203 3.70794ZM3.92773 5.95586V7.45586H5.74023V5.95586V4.45586H3.92773V5.95586ZM21.7507 7.25007V4.25007H18.7506V7.25007H21.7507ZM22.6569 8.15632V11.1563H25.6569V8.15632H22.6569ZM18.8641 1.91366L18.4398 -1.05619L18.4398 -1.05619L18.8641 1.91366ZM5.817 3.77753L6.24125 6.74738L6.24126 6.74737L5.817 3.77753ZM21.7507 6.34382H24.7507V3.34382H21.7507V6.34382ZM20.8444 7.25007H17.8444V10.2501H20.8444V7.25007ZM6.07332 5.5718L5.64906 2.60196L5.64898 2.60197L6.07332 5.5718ZM19.1203 3.70794L18.6961 0.738081L18.6961 0.73809L19.1203 3.70794ZM21.7507 7.25007H18.7506V8.15632H21.7507H24.7507V7.25007H21.7507ZM21.7507 8.15632V11.1563H22.6569V8.15632V5.15632H21.7507V8.15632ZM22.6569 8.15632H25.6569V7.25007H22.6569H19.6569V8.15632H22.6569ZM22.6569 7.25007V4.25007H21.7507V7.25007V10.2501H22.6569V7.25007ZM6.12819 8.15632V11.1563H21.7507V8.15632V5.15632H6.12819V8.15632ZM21.7507 8.15632H24.7507V6.34382H21.7507H18.7506V8.15632H21.7507ZM21.7507 6.34382V3.34382H6.12819V6.34382V9.34382H21.7507V6.34382ZM22.6569 7.25007H25.6569V5.20318H22.6569H19.6569V7.25007H22.6569ZM20.8444 5.20318H17.8444V7.25007H20.8444H23.8444V5.20318H20.8444ZM20.8444 7.25007V10.2501H22.6569V7.25007V4.25007H20.8444V7.25007ZM18.8641 1.91366L18.4398 -1.05619L5.39274 0.807678L5.817 3.77753L6.24126 6.74737L19.2883 4.88351L18.8641 1.91366ZM6.07332 5.5718L6.49759 8.54165L19.5446 6.67779L19.1203 3.70794L18.6961 0.73809L5.64906 2.60196L6.07332 5.5718ZM5.817 3.77753L5.39275 0.807675C2.83073 1.17367 0.927734 3.36787 0.927734 5.95586H3.92773H6.92773C6.92773 6.35375 6.63516 6.69111 6.24125 6.74738L5.817 3.77753ZM5.74023 5.95586H8.74023C8.74023 7.25582 7.78435 8.3578 6.49767 8.54164L6.07332 5.5718L5.64898 2.60197C3.98006 2.84043 2.74023 4.26976 2.74023 5.95586H5.74023ZM22.6569 5.20318H25.6569C25.6569 1.35539 22.249 -1.60035 18.4398 -1.05619L18.8641 1.91366L19.2883 4.88351C19.4829 4.85572 19.6569 5.00665 19.6569 5.20318H22.6569ZM19.1203 3.70794L19.5446 6.6778C18.6473 6.80595 17.8444 6.10969 17.8444 5.20318H20.8444H23.8444C23.8444 2.45833 21.4134 0.349963 18.6961 0.738081L19.1203 3.70794ZM6.12819 6.34382V3.34382C7.57079 3.34382 8.74023 4.51327 8.74023 5.95586H5.74023H2.74023C2.74023 7.82698 4.25708 9.34382 6.12819 9.34382V6.34382ZM3.92773 5.95586H0.927734C0.927734 8.828 3.25606 11.1563 6.12819 11.1563V8.15632V5.15632C6.56977 5.15632 6.92773 5.51429 6.92773 5.95586H3.92773Z" fill="white" mask="url(#path-2-inside-1_3534_1262)"/>
<path opacity="0.5" d="M9.66602 14.5H19.3327" stroke="white" stroke-width="3" stroke-linecap="round"/>
<path opacity="0.5" d="M9.66602 18.7292H16.3118" stroke="white" stroke-width="3" stroke-linecap="round"/>
</svg>
