<svg width="27" height="27" viewBox="0 0 27 27" fill="none" xmlns="http://www.w3.org/2000/svg">
<path d="M19.7212 8.74125C19.6424 8.73 19.5637 8.73 19.4849 8.74125C17.7412 8.685 16.3574 7.25625 16.3574 5.50125C16.3574 3.7125 17.8087 2.25 19.6087 2.25C21.3974 2.25 22.8599 3.70125 22.8599 5.50125C22.8487 7.25625 21.4649 8.685 19.7212 8.74125Z" fill="#004D43"/>
<path d="M23.3915 16.538C22.1315 17.3817 20.3652 17.6967 18.734 17.483C19.1615 16.5605 19.3865 15.5367 19.3977 14.4567C19.3977 13.3317 19.1502 12.263 18.6777 11.3292C20.3427 11.1042 22.109 11.4192 23.3802 12.263C25.1577 13.433 25.1577 15.3567 23.3915 16.538Z" fill="#004D43"/>
<path d="M7.24469 8.74125C7.32344 8.73 7.40219 8.73 7.48094 8.74125C9.22469 8.685 10.6084 7.25625 10.6084 5.50125C10.6084 3.70125 9.15719 2.25 7.35719 2.25C5.56844 2.25 4.11719 3.70125 4.11719 5.50125C4.11719 7.25625 5.50094 8.685 7.24469 8.74125Z" fill="#004D43"/>
<path d="M7.37047 14.4569C7.37047 15.5482 7.60672 16.5832 8.03422 17.5169C6.44797 17.6857 4.79422 17.3482 3.57922 16.5494C1.80172 15.3682 1.80172 13.4444 3.57922 12.2632C4.78297 11.4532 6.48172 11.1269 8.07922 11.3069C7.61797 12.2519 7.37047 13.3207 7.37047 14.4569Z" fill="#004D43"/>
<path d="M13.6354 17.8537C13.5454 17.8425 13.4442 17.8425 13.3429 17.8537C11.2729 17.7862 9.61914 16.0875 9.61914 13.995C9.63039 11.8575 11.3517 10.125 13.5004 10.125C15.6379 10.125 17.3704 11.8575 17.3704 13.995C17.3592 16.0875 15.7167 17.7862 13.6354 17.8537Z" fill="#004D43"/>
<path d="M9.97914 20.1832C8.28039 21.3195 8.28039 23.187 9.97914 24.312C11.9142 25.6057 15.0867 25.6057 17.0217 24.312C18.7204 23.1757 18.7204 21.3082 17.0217 20.1832C15.0979 18.8895 11.9254 18.8895 9.97914 20.1832Z" fill="#004D43"/>
</svg>
