<svg width="39" height="39" viewBox="0 0 39 39" fill="none" xmlns="http://www.w3.org/2000/svg">
<path d="M4.875 16.25H34.125M11.375 4.875V8.125M27.625 4.875V8.125M10.075 34.125H28.925C30.7452 34.125 31.6553 34.125 32.3505 33.7707C32.962 33.4592 33.4592 32.962 33.7707 32.3505C34.125 31.6553 34.125 30.7452 34.125 28.925V13.325C34.125 11.5048 34.125 10.5947 33.7707 9.89953C33.4592 9.288 32.962 8.79081 32.3505 8.47923C31.6553 8.125 30.7452 8.125 28.925 8.125H10.075C8.25484 8.125 7.34474 8.125 6.64953 8.47923C6.038 8.79081 5.54081 9.288 5.22923 9.89953C4.875 10.5947 4.875 11.5048 4.875 13.325V28.925C4.875 30.7452 4.875 31.6553 5.22923 32.3505C5.54081 32.962 6.038 33.4592 6.64953 33.7707C7.34474 34.125 8.25482 34.125 10.075 34.125Z" stroke="white" stroke-width="3" stroke-linecap="round" stroke-linejoin="round"/>
</svg>
