<svg width="27" height="27" viewBox="0 0 27 27" fill="none" xmlns="http://www.w3.org/2000/svg">
<path fill-rule="evenodd" clip-rule="evenodd" d="M5.70193 17.2523L13.5 27L21.2981 17.2523C22.8044 15.3695 23.625 13.0301 23.625 10.6189V10.125C23.625 4.53311 19.0919 0 13.5 0C7.90811 0 3.375 4.53311 3.375 10.125V10.6189C3.375 13.0301 4.19563 15.3695 5.70193 17.2523ZM13.5 13.5C15.364 13.5 16.875 11.989 16.875 10.125C16.875 8.26104 15.364 6.75 13.5 6.75C11.636 6.75 10.125 8.26104 10.125 10.125C10.125 11.989 11.636 13.5 13.5 13.5Z" fill="#004D43"/>
</svg>
