<svg width="29" height="29" viewBox="0 0 29 29" fill="none" xmlns="http://www.w3.org/2000/svg">
<path d="M20.5423 13.2917H8.45898M18.1257 13.2917V15.7083M19.334 8.45833H9.66732V4.83333C9.66732 4.51286 9.79462 4.20552 10.0212 3.97891C10.2478 3.75231 10.5552 3.625 10.8757 3.625H18.1257C18.4461 3.625 18.7535 3.75231 18.9801 3.97891C19.2067 4.20552 19.334 4.51286 19.334 4.83333V8.45833Z" stroke="white" stroke-width="3" stroke-linecap="round" stroke-linejoin="round"/>
<path d="M25.375 24.1666V9.66659C25.375 8.99924 24.834 8.45825 24.1667 8.45825L4.83333 8.45825C4.16599 8.45825 3.625 8.99924 3.625 9.66659V24.1666C3.625 24.8339 4.16599 25.3749 4.83333 25.3749H24.1667C24.834 25.3749 25.375 24.8339 25.375 24.1666Z" stroke="white" stroke-width="3" stroke-linecap="round" stroke-linejoin="round"/>
</svg>
