<svg width="129" height="92" viewBox="0 0 129 92" fill="none" xmlns="http://www.w3.org/2000/svg">
<path d="M70.0684 62.3779C70.0684 57.3649 70.5241 52.0101 71.4355 46.3135C72.4609 40.5029 73.999 34.8063 76.0498 29.2236C78.2145 23.527 80.9489 18.1722 84.2529 13.1592C87.6709 8.03223 91.7725 3.64583 96.5576 0L115.186 12.9883C111.995 16.6341 109.603 20.109 108.008 23.4131C106.413 26.7171 105.16 30.0212 104.248 33.3252C107.666 33.8949 110.856 35.0911 113.818 36.9141C116.781 38.623 119.344 40.7878 121.509 43.4082C123.674 45.9147 125.382 48.82 126.636 52.124C127.889 55.3141 128.516 58.7321 128.516 62.3779C128.516 66.3656 127.718 70.1253 126.123 73.6572C124.642 77.0752 122.534 80.1514 119.8 82.8857C117.179 85.5062 114.103 87.6139 110.571 89.209C107.039 90.6901 103.337 91.4307 99.4629 91.4307C95.3613 91.4307 91.4876 90.6901 87.8418 89.209C84.3099 87.6139 81.1768 85.5062 78.4424 82.8857C75.8219 80.1514 73.7712 77.0752 72.29 73.6572C70.8089 70.1253 70.0684 66.3656 70.0684 62.3779ZM0 62.3779C0 57.3649 0.455729 52.0101 1.36719 46.3135C2.39258 40.5029 3.93066 34.8063 5.98145 29.2236C8.14616 23.527 10.9375 18.1722 14.3555 13.1592C17.7734 8.03223 21.875 3.64583 26.6602 0L45.1172 12.9883C41.9271 16.6341 39.5345 20.109 37.9395 23.4131C36.4583 26.7171 35.262 30.0212 34.3506 33.3252C37.7686 33.8949 40.9587 35.0911 43.9209 36.9141C46.8831 38.623 49.3896 40.7878 51.4404 43.4082C53.6051 45.9147 55.3141 48.82 56.5674 52.124C57.8206 55.3141 58.4473 58.7321 58.4473 62.3779C58.4473 66.3656 57.6497 70.1253 56.0547 73.6572C54.5736 77.0752 52.4658 80.1514 49.7314 82.8857C47.111 85.5062 44.0348 87.6139 40.5029 89.209C36.971 90.6901 33.2682 91.4307 29.3945 91.4307C25.293 91.4307 21.4193 90.6901 17.7734 89.209C14.2415 87.6139 11.1654 85.5062 8.54492 82.8857C5.92448 80.1514 3.81673 77.0752 2.22168 73.6572C0.74056 70.1253 0 66.3656 0 62.3779Z" fill="black" fill-opacity="0.21"/>
</svg>
