<svg width="46" height="46" viewBox="0 0 46 46" fill="none" xmlns="http://www.w3.org/2000/svg">
<mask id="path-1-inside-1_3647_48" fill="white">
<path d="M2.39551 20.1249C2.39551 20.9188 3.03911 21.5624 3.83301 21.5624C4.62691 21.5624 5.27051 20.9188 5.27051 20.1249H2.39551ZM5.89057 29.9505C5.58676 29.217 4.74586 28.8688 4.01239 29.1725C3.27892 29.4763 2.9306 30.3172 3.23441 31.0507L5.89057 29.9505ZM26.3195 41.7252L27.3586 39.9699L24.8843 38.5054L23.8453 40.2608L26.3195 41.7252ZM18.6408 39.9699L19.6798 41.7252L22.1538 40.2608L21.1148 38.5054L18.6408 39.9699ZM23.8453 40.2608C23.476 40.8849 22.5234 40.8849 22.1538 40.2608L19.6798 41.7252C21.1625 44.2303 24.8368 44.2303 26.3195 41.7252L23.8453 40.2608ZM20.1247 5.27075H25.8747V2.39575H20.1247V5.27075ZM40.7288 20.1249V22.0416H43.6038V20.1249H40.7288ZM14.9545 34.963C12.5482 34.9214 11.2874 34.7684 10.2991 34.359L9.19885 37.0152C10.7417 37.6542 12.499 37.796 14.9049 37.8374L14.9545 34.963ZM3.23441 31.0507C4.35296 33.7511 6.49844 35.8966 9.19885 37.0152L10.2991 34.359C8.3031 33.5322 6.71732 31.9465 5.89057 29.9505L3.23441 31.0507ZM40.7288 22.0416C40.7288 24.2939 40.7281 25.9111 40.6411 27.1873C40.5548 28.4505 40.3888 29.2743 40.1088 29.9505L42.7649 31.0507C43.2144 29.9659 43.4131 28.7927 43.5093 27.383C43.6046 25.9863 43.6038 24.2546 43.6038 22.0416H40.7288ZM31.0943 37.8374C33.5003 37.796 35.2577 37.6542 36.8004 37.0152L35.7003 34.359C34.712 34.7684 33.4511 34.9214 31.0449 34.963L31.0943 37.8374ZM40.1088 29.9505C39.2819 31.9465 37.6963 33.5322 35.7003 34.359L36.8004 37.0152C39.5008 35.8966 41.6463 33.7511 42.7649 31.0507L40.1088 29.9505ZM25.8747 5.27075C29.0395 5.27075 31.3123 5.27227 33.085 5.44082C34.8364 5.60734 35.9508 5.92669 36.8392 6.47112L38.3414 4.01978C36.9252 3.15201 35.3189 2.76527 33.3571 2.57874C31.4167 2.39424 28.9839 2.39575 25.8747 2.39575V5.27075ZM43.6038 20.1249C43.6038 17.0157 43.6054 14.5829 43.4208 12.6425C43.2343 10.6807 42.8475 9.07428 41.9799 7.65821L39.5284 9.1604C40.073 10.0488 40.3923 11.1632 40.5588 12.9146C40.7273 14.6873 40.7288 16.96 40.7288 20.1249H43.6038ZM36.8392 6.47112C37.9353 7.1428 38.8568 8.06433 39.5284 9.1604L41.9799 7.65821C41.0712 6.1753 39.8244 4.92851 38.3414 4.01978L36.8392 6.47112ZM20.1247 2.39575C17.0155 2.39575 14.5826 2.39424 12.6422 2.57874C10.6804 2.76527 9.07404 3.15201 7.65797 4.01978L9.16015 6.47112C10.0486 5.92669 11.163 5.60734 12.9143 5.44082C14.6871 5.27227 16.9598 5.27075 20.1247 5.27075V2.39575ZM5.27051 20.1249C5.27051 16.96 5.27202 14.6873 5.44057 12.9146C5.60709 11.1632 5.92645 10.0488 6.47088 9.1604L4.01954 7.65821C3.15177 9.07428 2.76502 10.6807 2.57849 12.6425C2.39399 14.5829 2.39551 17.0157 2.39551 20.1249H5.27051ZM7.65797 4.01978C6.17506 4.92851 4.92827 6.1753 4.01954 7.65821L6.47088 9.1604C7.14255 8.06433 8.06409 7.1428 9.16015 6.47112L7.65797 4.01978ZM21.1148 38.5054C20.7257 37.8479 20.3842 37.2678 20.052 36.812C19.702 36.3321 19.3009 35.8999 18.7444 35.5761L17.299 38.0615C17.3898 38.1142 17.5136 38.2106 17.7286 38.5054C17.9612 38.8247 18.224 39.2657 18.6408 39.9699L21.1148 38.5054ZM14.9049 37.8374C15.7465 37.852 16.2796 37.8627 16.6859 37.9076C17.0657 37.9497 17.2128 38.0112 17.299 38.0615L18.7444 35.5761C18.1833 35.2497 17.5994 35.1161 17.0024 35.05C16.432 34.9869 15.7427 34.9766 14.9545 34.963L14.9049 37.8374ZM27.3586 39.9699C27.7752 39.2657 28.038 38.8247 28.2707 38.5054C28.4856 38.2106 28.6094 38.1142 28.7002 38.0615L27.2549 35.5761C26.6985 35.8999 26.2971 36.3321 25.9473 36.812C25.6152 37.2678 25.2736 37.8479 24.8843 38.5054L27.3586 39.9699ZM31.0449 34.963C30.2566 34.9766 29.5673 34.9869 28.9969 35.05C28.3999 35.1161 27.8161 35.2497 27.2549 35.5761L28.7002 38.0615C28.7865 38.0112 28.9337 37.9497 29.3134 37.9076C29.7197 37.8627 30.2527 37.852 31.0943 37.8374L31.0449 34.963Z"/>
</mask>
<path d="M2.39551 20.1249C2.39551 20.9188 3.03911 21.5624 3.83301 21.5624C4.62691 21.5624 5.27051 20.9188 5.27051 20.1249H2.39551ZM5.89057 29.9505C5.58676 29.217 4.74586 28.8688 4.01239 29.1725C3.27892 29.4763 2.9306 30.3172 3.23441 31.0507L5.89057 29.9505ZM26.3195 41.7252L27.3586 39.9699L24.8843 38.5054L23.8453 40.2608L26.3195 41.7252ZM18.6408 39.9699L19.6798 41.7252L22.1538 40.2608L21.1148 38.5054L18.6408 39.9699ZM23.8453 40.2608C23.476 40.8849 22.5234 40.8849 22.1538 40.2608L19.6798 41.7252C21.1625 44.2303 24.8368 44.2303 26.3195 41.7252L23.8453 40.2608ZM20.1247 5.27075H25.8747V2.39575H20.1247V5.27075ZM40.7288 20.1249V22.0416H43.6038V20.1249H40.7288ZM14.9545 34.963C12.5482 34.9214 11.2874 34.7684 10.2991 34.359L9.19885 37.0152C10.7417 37.6542 12.499 37.796 14.9049 37.8374L14.9545 34.963ZM3.23441 31.0507C4.35296 33.7511 6.49844 35.8966 9.19885 37.0152L10.2991 34.359C8.3031 33.5322 6.71732 31.9465 5.89057 29.9505L3.23441 31.0507ZM40.7288 22.0416C40.7288 24.2939 40.7281 25.9111 40.6411 27.1873C40.5548 28.4505 40.3888 29.2743 40.1088 29.9505L42.7649 31.0507C43.2144 29.9659 43.4131 28.7927 43.5093 27.383C43.6046 25.9863 43.6038 24.2546 43.6038 22.0416H40.7288ZM31.0943 37.8374C33.5003 37.796 35.2577 37.6542 36.8004 37.0152L35.7003 34.359C34.712 34.7684 33.4511 34.9214 31.0449 34.963L31.0943 37.8374ZM40.1088 29.9505C39.2819 31.9465 37.6963 33.5322 35.7003 34.359L36.8004 37.0152C39.5008 35.8966 41.6463 33.7511 42.7649 31.0507L40.1088 29.9505ZM25.8747 5.27075C29.0395 5.27075 31.3123 5.27227 33.085 5.44082C34.8364 5.60734 35.9508 5.92669 36.8392 6.47112L38.3414 4.01978C36.9252 3.15201 35.3189 2.76527 33.3571 2.57874C31.4167 2.39424 28.9839 2.39575 25.8747 2.39575V5.27075ZM43.6038 20.1249C43.6038 17.0157 43.6054 14.5829 43.4208 12.6425C43.2343 10.6807 42.8475 9.07428 41.9799 7.65821L39.5284 9.1604C40.073 10.0488 40.3923 11.1632 40.5588 12.9146C40.7273 14.6873 40.7288 16.96 40.7288 20.1249H43.6038ZM36.8392 6.47112C37.9353 7.1428 38.8568 8.06433 39.5284 9.1604L41.9799 7.65821C41.0712 6.1753 39.8244 4.92851 38.3414 4.01978L36.8392 6.47112ZM20.1247 2.39575C17.0155 2.39575 14.5826 2.39424 12.6422 2.57874C10.6804 2.76527 9.07404 3.15201 7.65797 4.01978L9.16015 6.47112C10.0486 5.92669 11.163 5.60734 12.9143 5.44082C14.6871 5.27227 16.9598 5.27075 20.1247 5.27075V2.39575ZM5.27051 20.1249C5.27051 16.96 5.27202 14.6873 5.44057 12.9146C5.60709 11.1632 5.92645 10.0488 6.47088 9.1604L4.01954 7.65821C3.15177 9.07428 2.76502 10.6807 2.57849 12.6425C2.39399 14.5829 2.39551 17.0157 2.39551 20.1249H5.27051ZM7.65797 4.01978C6.17506 4.92851 4.92827 6.1753 4.01954 7.65821L6.47088 9.1604C7.14255 8.06433 8.06409 7.1428 9.16015 6.47112L7.65797 4.01978ZM21.1148 38.5054C20.7257 37.8479 20.3842 37.2678 20.052 36.812C19.702 36.3321 19.3009 35.8999 18.7444 35.5761L17.299 38.0615C17.3898 38.1142 17.5136 38.2106 17.7286 38.5054C17.9612 38.8247 18.224 39.2657 18.6408 39.9699L21.1148 38.5054ZM14.9049 37.8374C15.7465 37.852 16.2796 37.8627 16.6859 37.9076C17.0657 37.9497 17.2128 38.0112 17.299 38.0615L18.7444 35.5761C18.1833 35.2497 17.5994 35.1161 17.0024 35.05C16.432 34.9869 15.7427 34.9766 14.9545 34.963L14.9049 37.8374ZM27.3586 39.9699C27.7752 39.2657 28.038 38.8247 28.2707 38.5054C28.4856 38.2106 28.6094 38.1142 28.7002 38.0615L27.2549 35.5761C26.6985 35.8999 26.2971 36.3321 25.9473 36.812C25.6152 37.2678 25.2736 37.8479 24.8843 38.5054L27.3586 39.9699ZM31.0449 34.963C30.2566 34.9766 29.5673 34.9869 28.9969 35.05C28.3999 35.1161 27.8161 35.2497 27.2549 35.5761L28.7002 38.0615C28.7865 38.0112 28.9337 37.9497 29.3134 37.9076C29.7197 37.8627 30.2527 37.852 31.0943 37.8374L31.0449 34.963Z" fill="#1C274C"/>
<path d="M26.3195 41.7252L25.5556 43.016L27.0836 40.4343L26.3195 41.7252ZM24.8843 38.5054L25.6483 37.2145L24.1203 39.7962L24.8843 38.5054ZM18.6408 39.9699L17.8766 38.6791L19.4049 41.2607L18.6408 39.9699ZM18.7444 35.5761L20.0411 36.3302L17.4478 34.822L18.7444 35.5761ZM25.0825 40.993L24.3185 42.2838L25.5555 43.016L26.3195 41.7252L27.0836 40.4343L25.8465 39.7022L25.0825 40.993ZM26.1215 39.2375L26.8855 37.9466L25.6483 37.2145L24.8843 38.5054L24.1204 39.7963L25.3576 40.5284L26.1215 39.2375ZM19.8778 39.2375L19.1136 37.9468L17.8766 38.6791L18.6408 39.9699L19.4049 41.2607L20.642 40.5283L19.8778 39.2375ZM20.9168 40.993L21.6809 42.2838L22.9179 41.5517L22.1538 40.2608L21.3898 38.97L20.1528 39.7022L20.9168 40.993ZM5.27051 20.1249V18.6249H2.39551V20.1249V21.6249H5.27051V20.1249ZM3.23441 31.0507L3.80842 32.4365L6.46457 31.3363L5.89057 29.9505L5.31657 28.5647L2.66041 29.6649L3.23441 31.0507ZM14.9297 36.4003L13.4299 36.3745L13.4052 37.8116L14.9049 37.8374L16.4047 37.8633L16.4295 36.4261L14.9297 36.4003ZM9.74895 35.6871L8.36313 35.1131L7.81303 36.4411L9.19885 37.0152L10.5847 37.5892L11.1348 36.2611L9.74895 35.6871ZM41.4369 30.5006L40.8628 31.8864L42.1909 32.4365L42.7649 31.0507L43.3389 29.6649L42.0109 29.1148L41.4369 30.5006ZM31.0696 36.4003L32.5694 36.3745L32.5447 34.9372L31.0449 34.963L29.5451 34.9888L29.5698 36.4261L31.0696 36.4003ZM36.2504 35.6871L34.8645 36.2611L35.4146 37.5892L36.8004 37.0152L38.1863 36.4412L37.6362 35.1131L36.2504 35.6871ZM37.5903 5.24545L36.3114 4.46167L35.5602 5.68734L36.8392 6.47112L38.1181 7.25491L38.8692 6.02924L37.5903 5.24545ZM40.7541 8.40931L41.5379 9.68828L42.7636 8.93718L41.9799 7.65821L41.1961 6.37924L39.9704 7.13035L40.7541 8.40931ZM8.40907 5.24545L9.68802 4.4617L8.93692 3.23603L7.65797 4.01978L6.37901 4.80354L7.13011 6.02921L8.40907 5.24545ZM5.24521 8.40931L6.02896 7.13036L4.80329 6.37926L4.01954 7.65821L3.23578 8.93716L4.46145 9.68827L5.24521 8.40931ZM18.0217 36.8187L19.3183 37.5729L20.041 36.3303L18.7444 35.5761L17.4478 34.822L16.7251 36.0645L18.0217 36.8187ZM27.3586 39.9699L28.1226 38.6791L25.6484 37.2145L24.8843 38.5054L24.1203 39.7962L26.5945 41.2607L27.3586 39.9699ZM23.8453 40.2608L23.0813 41.5517L25.5556 43.016L26.3195 41.7252L27.0835 40.4343L24.6093 38.97L23.8453 40.2608ZM19.6798 41.7252L20.4438 43.016L22.9179 41.5517L22.1538 40.2608L21.3898 38.97L18.9158 40.4343L19.6798 41.7252ZM21.1148 38.5054L20.3507 37.2146L17.8767 38.6791L18.6408 39.9699L19.4049 41.2607L21.8789 39.7962L21.1148 38.5054ZM25.8747 5.27075H27.3747V2.39575H25.8747H24.3747V5.27075H25.8747ZM20.1247 2.39575H18.6247V5.27075H20.1247H21.6247V2.39575H20.1247ZM40.7288 22.0416V23.5416H43.6038V22.0416V20.5416H40.7288V22.0416ZM43.6038 20.1249V18.6249H40.7288V20.1249V21.6249H43.6038V20.1249ZM10.2991 34.359L8.91324 33.785L7.81303 36.4411L9.19885 37.0152L10.5847 37.5892L11.6849 34.9331L10.2991 34.359ZM14.9049 37.8374L16.4047 37.8633L16.4542 34.9888L14.9545 34.963L13.4547 34.9371L13.4052 37.8116L14.9049 37.8374ZM40.1088 29.9505L39.5348 31.3363L42.1909 32.4365L42.7649 31.0507L43.3389 29.6649L40.6828 28.5647L40.1088 29.9505ZM36.8004 37.0152L38.1863 36.4412L37.0861 33.785L35.7003 34.359L34.3144 34.9331L35.4146 37.5892L36.8004 37.0152ZM31.0449 34.963L29.5451 34.9888L29.5946 37.8632L31.0943 37.8374L32.5941 37.8116L32.5447 34.9372L31.0449 34.963ZM36.8392 6.47112L38.1181 7.25491L39.6204 4.80357L38.3414 4.01978L37.0625 3.236L35.5602 5.68734L36.8392 6.47112ZM41.9799 7.65821L41.1961 6.37924L38.7447 7.88143L39.5284 9.1604L40.3122 10.4394L42.7636 8.93718L41.9799 7.65821ZM7.65797 4.01978L6.37901 4.80353L7.88119 7.25487L9.16015 6.47112L10.4391 5.68737L8.93692 3.23603L7.65797 4.01978ZM6.47088 9.1604L7.25463 7.88144L4.80329 6.37925L4.01954 7.65821L3.23579 8.93717L5.68713 10.4394L6.47088 9.1604ZM18.7444 35.5761L17.4478 34.822L16.0023 37.3074L17.299 38.0615L18.5956 38.8156L20.0411 36.3302L18.7444 35.5761ZM28.7002 38.0615L29.9969 37.3074L28.5515 34.822L27.2549 35.5761L25.9582 36.3302L27.4036 38.8156L28.7002 38.0615ZM26.3195 41.7252L23.7379 40.197L23.7379 40.1971L26.3195 41.7252ZM24.8843 38.5054L22.3029 36.9768L22.3026 36.9773L24.8843 38.5054ZM18.6408 39.9699L16.059 41.4979L16.0592 41.4981L18.6408 39.9699ZM22.1538 40.2608L19.5722 41.7889L19.5725 41.7894L22.1538 40.2608ZM5.89057 29.9505L3.11891 31.0985L3.11892 31.0985L5.89057 29.9505ZM3.23441 31.0507L0.462751 32.1987L0.462779 32.1987L3.23441 31.0507ZM14.9049 37.8374L14.9569 34.8379L14.9566 34.8379L14.9049 37.8374ZM9.19885 37.0152L8.05078 39.7868L8.05089 39.7868L9.19885 37.0152ZM42.7649 31.0507L39.9934 29.9024L39.9933 29.9026L42.7649 31.0507ZM31.0449 34.963L31.0967 37.9625L31.0967 37.9625L31.0449 34.963ZM36.8004 37.0152L37.9485 39.7868L37.9485 39.7868L36.8004 37.0152ZM36.8392 6.47112L35.2716 9.029L35.2717 9.02908L36.8392 6.47112ZM41.9799 7.65821L44.5378 6.09084L44.5378 6.09076L41.9799 7.65821ZM7.65797 4.01978L6.09047 1.46186L6.09046 1.46187L7.65797 4.01978ZM4.01954 7.65821L1.46162 6.09071L1.46162 6.09071L4.01954 7.65821ZM18.7444 35.5761L20.2529 32.983L20.2529 32.983L18.7444 35.5761ZM27.3586 39.9699L29.9402 41.4981L29.9404 41.4976L27.3586 39.9699ZM23.8453 40.2608L21.2636 38.7328L21.2636 38.7329L23.8453 40.2608ZM19.6798 41.7252L22.2615 40.1971L22.2614 40.197L19.6798 41.7252ZM21.1148 38.5054L18.5331 40.0333L18.5331 40.0334L21.1148 38.5054ZM14.9545 34.963L14.9026 37.9625H14.9027L14.9545 34.963ZM10.2991 34.359L9.15089 37.1306L9.15094 37.1307L10.2991 34.359ZM40.6411 27.1873L43.6341 27.3916L43.6341 27.3914L40.6411 27.1873ZM40.1088 29.9505L42.8804 31.0987L42.8805 31.0983L40.1088 29.9505ZM43.5093 27.383L46.5024 27.5872L46.5024 27.5871L43.5093 27.383ZM31.0943 37.8374L31.0427 34.8379L31.0424 34.8379L31.0943 37.8374ZM35.7003 34.359L34.5521 31.5874L34.5521 31.5875L35.7003 34.359ZM33.085 5.44082L32.801 8.42735L32.801 8.42735L33.085 5.44082ZM38.3414 4.01978L39.9089 1.46186L39.9088 1.46179L38.3414 4.01978ZM33.3571 2.57874L33.6411 -0.407793L33.6411 -0.407794L33.3571 2.57874ZM43.4208 12.6425L40.4343 12.9264L40.4343 12.9265L43.4208 12.6425ZM39.5284 9.1604L36.9704 10.7278L36.9706 10.7281L39.5284 9.1604ZM40.5588 12.9146L43.5454 12.6308L43.5454 12.6306L40.5588 12.9146ZM12.6422 2.57874L12.9262 5.56527L12.9262 5.56527L12.6422 2.57874ZM9.16015 6.47112L7.59266 3.9132L7.59265 3.91321L9.16015 6.47112ZM12.9143 5.44082L12.6304 2.45429L12.6304 2.45429L12.9143 5.44082ZM5.44057 12.9146L2.45404 12.6306L2.45404 12.6306L5.44057 12.9146ZM6.47088 9.1604L3.91297 7.59289L3.91295 7.59291L6.47088 9.1604ZM2.57849 12.6425L5.56502 12.9264L5.56502 12.9264L2.57849 12.6425ZM20.052 36.812L22.4765 35.0451L22.476 35.0444L20.052 36.812ZM17.299 38.0615L15.788 40.6532L15.7937 40.6565L17.299 38.0615ZM17.7286 38.5054L20.1533 36.7389L20.1527 36.738L17.7286 38.5054ZM16.6859 37.9076L17.0171 34.9259L17.0151 34.9257L16.6859 37.9076ZM17.0024 35.05L17.3326 32.0682L17.332 32.0682L17.0024 35.05ZM28.2707 38.5054L25.8463 36.7383L25.8461 36.7386L28.2707 38.5054ZM28.7002 38.0615L30.2057 40.6564L30.2097 40.6541L28.7002 38.0615ZM27.2549 35.5761L25.7466 32.9829L25.7462 32.9831L27.2549 35.5761ZM25.9473 36.812L23.5229 35.045L23.5228 35.0451L25.9473 36.812ZM28.9969 35.05L28.6673 32.0682L28.6667 32.0682L28.9969 35.05ZM29.3134 37.9076L28.9842 34.9257L28.9822 34.9259L29.3134 37.9076ZM2.39551 20.1249H-0.604492C-0.604492 22.5756 1.38223 24.5624 3.83301 24.5624V21.5624V18.5624C4.69599 18.5624 5.39551 19.262 5.39551 20.1249H2.39551ZM3.83301 21.5624V24.5624C6.28379 24.5624 8.27051 22.5756 8.27051 20.1249H5.27051H2.27051C2.27051 19.262 2.97003 18.5624 3.83301 18.5624V21.5624ZM5.89057 29.9505L8.66223 28.8025C7.72432 26.5381 5.12843 25.4632 2.86441 26.4009L4.01239 29.1725L5.16037 31.9442C4.36329 32.2743 3.44919 31.8959 3.11891 31.0985L5.89057 29.9505ZM4.01239 29.1725L2.86441 26.4009C0.600149 27.3387 -0.475065 29.9345 0.462751 32.1987L3.23441 31.0507L6.00608 29.9027C6.33627 30.6999 5.95769 31.614 5.16037 31.9442L4.01239 29.1725ZM26.3195 41.7252L28.9011 43.2533L29.9402 41.4981L27.3586 39.9699L24.7769 38.4417L23.7379 40.197L26.3195 41.7252ZM24.8843 38.5054L22.3026 36.9773L21.2636 38.7328L23.8453 40.2608L26.427 41.7889L27.466 40.0334L24.8843 38.5054ZM18.6408 39.9699L16.0592 41.4981L17.0982 43.2534L19.6798 41.7252L22.2614 40.197L21.2224 38.4417L18.6408 39.9699ZM22.1538 40.2608L24.7355 38.7328L23.6965 36.9773L21.1148 38.5054L18.5331 40.0334L19.5722 41.7889L22.1538 40.2608ZM23.8453 40.2608L21.2636 38.7329C21.6882 38.0154 22.4135 37.7289 22.9996 37.7289C23.5858 37.7289 24.3107 38.0153 24.7352 38.7323L22.1538 40.2608L19.5725 41.7894C21.1034 44.3749 24.8958 44.3761 26.427 41.7888L23.8453 40.2608ZM19.6798 41.7252L17.0981 43.2532C19.7425 47.7209 26.2568 47.7209 28.9012 43.2532L26.3195 41.7252L23.7379 40.1971C23.4168 40.7396 22.5826 40.7396 22.2615 40.1971L19.6798 41.7252ZM20.1247 5.27075V8.27075H25.8747V5.27075V2.27075H20.1247V5.27075ZM25.8747 2.39575V-0.604248H20.1247V2.39575V5.39575H25.8747V2.39575ZM40.7288 20.1249H37.7288V22.0416H40.7288H43.7288V20.1249H40.7288ZM43.6038 22.0416H46.6038V20.1249H43.6038H40.6038V22.0416H43.6038ZM14.9545 34.963L15.0063 31.9634C12.5955 31.9218 11.8552 31.7565 11.4472 31.5874L10.2991 34.359L9.15094 37.1307C10.7195 37.7804 12.5009 37.921 14.9026 37.9625L14.9545 34.963ZM9.19885 37.0152L8.05089 39.7868C10.1712 40.665 12.4445 40.7955 14.8533 40.837L14.9049 37.8374L14.9566 34.8379C12.5535 34.7965 11.3123 34.6433 10.3468 34.2435L9.19885 37.0152ZM3.23441 31.0507L0.462779 32.1987C1.8858 35.6342 4.61529 38.3637 8.05078 39.7868L9.19885 37.0152L10.3469 34.2435C8.38159 33.4294 6.82012 31.868 6.00605 29.9026L3.23441 31.0507ZM10.2991 34.359L11.4472 31.5875C10.1862 31.0651 9.18446 30.0633 8.66222 28.8025L5.89057 29.9505L3.11892 31.0985C4.25019 33.8297 6.42002 35.9993 9.15089 37.1306L10.2991 34.359ZM40.7288 22.0416H37.7288C37.7288 24.3354 37.7264 25.8329 37.648 26.9832L40.6411 27.1873L43.6341 27.3914C43.7297 25.9894 43.7288 24.2523 43.7288 22.0416H40.7288ZM40.6411 27.1873L37.648 26.9829C37.5722 28.0939 37.4404 28.5531 37.3371 28.8027L40.1088 29.9505L42.8805 31.0983C43.3372 29.9956 43.5374 28.8071 43.6341 27.3916L40.6411 27.1873ZM42.7649 31.0507L45.5365 32.199C46.1626 30.6877 46.3957 29.1499 46.5024 27.5872L43.5093 27.383L40.5163 27.1787C40.4305 28.4354 40.2662 29.244 39.9934 29.9024L42.7649 31.0507ZM43.5093 27.383L46.5024 27.5871C46.6062 26.0648 46.6038 24.214 46.6038 22.0416H43.6038H40.6038C40.6038 24.2951 40.603 25.9078 40.5163 27.1788L43.5093 27.383ZM31.0943 37.8374L31.1459 40.837C33.5547 40.7955 35.8283 40.665 37.9485 39.7868L36.8004 37.0152L35.6524 34.2435C34.6871 34.6433 33.4459 34.7965 31.0427 34.8379L31.0943 37.8374ZM35.7003 34.359L34.5521 31.5875C34.1442 31.7565 33.4038 31.9218 30.993 31.9634L31.0449 34.963L31.0967 37.9625C33.4983 37.921 35.2799 37.7804 36.8485 37.1306L35.7003 34.359ZM40.1088 29.9505L37.3372 28.8024C36.8148 30.0634 35.8131 31.0651 34.5521 31.5874L35.7003 34.359L36.8484 37.1306C39.5794 35.9993 41.7491 33.8297 42.8804 31.0987L40.1088 29.9505ZM36.8004 37.0152L37.9485 39.7868C41.384 38.3637 44.1135 35.6342 45.5365 32.1988L42.7649 31.0507L39.9933 29.9026C39.1792 31.8679 37.6177 33.4294 35.6524 34.2435L36.8004 37.0152ZM25.8747 5.27075V8.27075C29.0983 8.27075 31.2034 8.27545 32.801 8.42735L33.085 5.44082L33.3689 2.45429C31.4211 2.26909 28.9807 2.27075 25.8747 2.27075V5.27075ZM33.085 5.44082L32.801 8.42735C34.3332 8.57302 34.934 8.82212 35.2716 9.029L36.8392 6.47112L38.4067 3.91324C36.9675 3.03127 35.3397 2.64165 33.3689 2.45429L33.085 5.44082ZM38.3414 4.01978L39.9088 1.46179C37.9422 0.256779 35.8227 -0.200357 33.6411 -0.407793L33.3571 2.57874L33.0732 5.56527C34.815 5.73089 35.9082 6.04724 36.7741 6.57778L38.3414 4.01978ZM33.3571 2.57874L33.6411 -0.407794C31.5259 -0.608912 28.9265 -0.604248 25.8747 -0.604248V2.39575V5.39575C29.0413 5.39575 31.3075 5.39739 33.0732 5.56527L33.3571 2.57874ZM43.6038 20.1249H46.6038C46.6038 17.0732 46.6085 14.4737 46.4073 12.3584L43.4208 12.6425L40.4343 12.9265C40.6022 14.6921 40.6038 16.9582 40.6038 20.1249H43.6038ZM43.4208 12.6425L46.4073 12.3586C46.1999 10.1768 45.7428 8.0573 44.5378 6.09084L41.9799 7.65821L39.4219 9.22558C39.9523 10.0913 40.2687 11.1845 40.4343 12.9264L43.4208 12.6425ZM39.5284 9.1604L36.9706 10.7281C37.1775 11.0656 37.4266 11.6664 37.5723 13.1986L40.5588 12.9146L43.5454 12.6306C43.358 10.6601 42.9684 9.03202 42.0862 7.59271L39.5284 9.1604ZM40.5588 12.9146L37.5723 13.1984C37.7241 14.7961 37.7288 16.9013 37.7288 20.1249H40.7288H43.7288C43.7288 17.0188 43.7305 14.5785 43.5454 12.6308L40.5588 12.9146ZM36.8392 6.47112L35.2717 9.02908C35.9642 9.45339 36.5462 10.0355 36.9704 10.7278L39.5284 9.1604L42.0864 7.59302C41.1674 6.09318 39.9064 4.83221 38.4066 3.91316L36.8392 6.47112ZM41.9799 7.65821L44.5378 6.09076C43.3817 4.20415 41.7955 2.61795 39.9089 1.46186L38.3414 4.01978L36.774 6.57771C37.8532 7.23907 38.7606 8.14646 39.4219 9.22566L41.9799 7.65821ZM20.1247 2.39575V-0.604248C17.0729 -0.604248 14.4735 -0.608912 12.3583 -0.407794L12.6422 2.57874L12.9262 5.56527C14.6918 5.39739 16.958 5.39575 20.1247 5.39575V2.39575ZM12.6422 2.57874L12.3583 -0.407794C10.1766 -0.200364 8.05701 0.256763 6.09047 1.46186L7.65797 4.01978L9.22546 6.5777C10.0911 6.04726 11.1842 5.7309 12.9262 5.56527L12.6422 2.57874ZM9.16015 6.47112L10.7276 9.02905C11.0653 8.82212 11.6662 8.57302 13.1983 8.42735L12.9143 5.44082L12.6304 2.45429C10.6597 2.64166 9.03185 3.03127 7.59266 3.9132L9.16015 6.47112ZM12.9143 5.44082L13.1983 8.42735C14.7959 8.27545 16.901 8.27075 20.1247 8.27075V5.27075V2.27075C17.0186 2.27075 14.5782 2.26909 12.6304 2.45429L12.9143 5.44082ZM5.27051 20.1249H8.27051C8.27051 16.9013 8.2752 14.7962 8.42711 13.1985L5.44057 12.9146L2.45404 12.6306C2.26884 14.5785 2.27051 17.0188 2.27051 20.1249H5.27051ZM5.44057 12.9146L8.4271 13.1986C8.57277 11.6665 8.82187 11.0656 9.0288 10.7279L6.47088 9.1604L3.91295 7.59291C3.03102 9.03209 2.64141 10.66 2.45404 12.6306L5.44057 12.9146ZM4.01954 7.65821L1.46162 6.09071C0.256519 8.05725 -0.200608 10.1769 -0.408038 12.3585L2.57849 12.6425L5.56502 12.9264C5.73065 11.1844 6.04702 10.0913 6.57746 9.22571L4.01954 7.65821ZM2.57849 12.6425L-0.408038 12.3585C-0.609156 14.4737 -0.604492 17.0732 -0.604492 20.1249H2.39551H5.39551C5.39551 16.9583 5.39714 14.692 5.56502 12.9264L2.57849 12.6425ZM7.65797 4.01978L6.09046 1.46187C4.2039 2.61796 2.61772 4.20414 1.46162 6.09071L4.01954 7.65821L6.57746 9.22571C7.23882 8.14647 8.14622 7.23906 9.22547 6.5777L7.65797 4.01978ZM6.47088 9.1604L9.02879 10.7279C9.4531 10.0355 10.0353 9.45335 10.7277 9.02904L9.16015 6.47112L7.59265 3.91321C6.09292 4.83225 4.83201 6.09317 3.91297 7.59289L6.47088 9.1604ZM21.1148 38.5054L23.6966 36.9774C23.3352 36.3669 22.9122 35.643 22.4765 35.0451L20.052 36.812L17.6275 38.5789C17.8561 38.8925 18.1163 39.329 18.5331 40.0333L21.1148 38.5054ZM20.052 36.812L22.476 35.0444C21.9855 34.3717 21.2949 33.5891 20.2529 32.983L18.7444 35.5761L17.2359 38.1693C17.3069 38.2106 17.4186 38.2924 17.6281 38.5796L20.052 36.812ZM17.299 38.0615L15.7937 40.6565C15.7229 40.6154 15.6429 40.5638 15.5605 40.5013C15.4809 40.4408 15.4179 40.3845 15.3714 40.3392C15.2854 40.2552 15.2615 40.2139 15.3044 40.2727L17.7286 38.5054L20.1527 36.738C19.7984 36.252 19.3841 35.8028 18.8042 35.4664L17.299 38.0615ZM17.7286 38.5054L15.3038 40.2718C15.4324 40.4484 15.6122 40.7429 16.059 41.4979L18.6408 39.9699L21.2225 38.4419C20.8358 37.7885 20.49 37.201 20.1533 36.7389L17.7286 38.5054ZM14.9049 37.8374L14.853 40.837C15.7523 40.8525 16.1214 40.8635 16.3568 40.8895L16.6859 37.9076L17.0151 34.9257C16.4378 34.862 15.7407 34.8514 14.9569 34.8379L14.9049 37.8374ZM16.6859 37.9076L16.3548 40.8892C16.437 40.8984 16.396 40.8994 16.2846 40.8678C16.2242 40.8507 16.1439 40.8243 16.0501 40.7846C15.9525 40.7432 15.8641 40.6976 15.788 40.6532L17.299 38.0615L18.8099 35.4698C18.2254 35.129 17.6202 34.9929 17.0171 34.9259L16.6859 37.9076ZM18.7444 35.5761L20.2529 32.983C19.1962 32.3683 18.1566 32.1595 17.3326 32.0682L17.0024 35.05L16.6721 38.0318C17.0422 38.0728 17.1704 38.1312 17.2359 38.1693L18.7444 35.5761ZM17.0024 35.05L17.332 32.0682C16.5913 31.9863 15.7406 31.9761 15.0063 31.9634L14.9545 34.963L14.9027 37.9625C15.7448 37.9771 16.2727 37.9876 16.6727 38.0318L17.0024 35.05ZM27.3586 39.9699L29.9404 41.4976C30.3872 40.7425 30.5669 40.4484 30.6953 40.2721L28.2707 38.5054L25.8461 36.7386C25.5092 37.201 25.1632 37.7889 24.7767 38.4421L27.3586 39.9699ZM28.2707 38.5054L30.6951 40.2724C30.7379 40.2137 30.7139 40.2551 30.6279 40.3391C30.5814 40.3845 30.5184 40.4408 30.4388 40.5012C30.3565 40.5637 30.2765 40.6153 30.2057 40.6564L28.7002 38.0615L27.1947 35.4666C26.615 35.8029 26.2008 36.252 25.8463 36.7383L28.2707 38.5054ZM27.2549 35.5761L25.7462 32.9831C24.7047 33.5891 24.0139 34.3714 23.5229 35.045L25.9473 36.812L28.3717 38.579C28.5804 38.2927 28.6922 38.2107 28.7635 38.1692L27.2549 35.5761ZM25.9473 36.812L23.5228 35.0451C23.0872 35.6428 22.6642 36.3668 22.3029 36.9768L24.8843 38.5054L27.4657 40.0339C27.8831 39.3291 28.1431 38.8927 28.3718 38.5789L25.9473 36.812ZM31.0449 34.963L30.9931 31.9634C30.2586 31.9761 29.408 31.9863 28.6673 32.0682L28.9969 35.05L29.3266 38.0318C29.7266 37.9876 30.2545 37.9771 31.0967 37.9625L31.0449 34.963ZM28.9969 35.05L28.6667 32.0682C27.8426 32.1595 26.8032 32.3683 25.7466 32.9829L27.2549 35.5761L28.7632 38.1694C28.8289 38.1311 28.9572 38.0727 29.3272 38.0318L28.9969 35.05ZM28.7002 38.0615L30.2097 40.6541C30.134 40.6981 30.046 40.7436 29.9486 40.7848C29.855 40.8244 29.7749 40.8508 29.7146 40.8679C29.6033 40.8994 29.5623 40.8984 29.6445 40.8892L29.3134 37.9076L28.9822 34.9259C28.3785 34.9929 27.7743 35.1291 27.1908 35.4689L28.7002 38.0615ZM29.3134 37.9076L29.6425 40.8895C29.8779 40.8635 30.2469 40.8525 31.1462 40.837L31.0943 37.8374L31.0424 34.8379C30.2585 34.8514 29.5615 34.862 28.9842 34.9257L29.3134 37.9076Z" fill="white" mask="url(#path-1-inside-1_3647_48)"/>
<path d="M17.25 21.2367L21.0833 24.9167L28.75 17.25" stroke="white" stroke-width="3" stroke-linecap="round" stroke-linejoin="round"/>
</svg>
