<svg width="42" height="42" viewBox="0 0 42 42" fill="none" xmlns="http://www.w3.org/2000/svg">
<path fill-rule="evenodd" clip-rule="evenodd" d="M19.1539 2.1875H22.8461C25.2394 2.18747 27.1684 2.18743 28.6856 2.39141C30.2608 2.6032 31.587 3.05625 32.6405 4.10961C33.1627 4.63194 33.5373 5.22135 33.8082 5.87496C35.4394 6.07929 36.8088 6.5281 37.8905 7.6097C38.9438 8.66306 39.3969 9.98933 39.6086 11.5645C39.8125 13.0817 39.8125 15.0108 39.8125 17.4041V24.5961C39.8125 26.9894 39.8125 28.9184 39.6086 30.4356C39.3969 32.0108 38.9438 33.3371 37.8905 34.3905C36.8088 35.4721 35.4394 35.9208 33.8082 36.1252C33.5373 36.7787 33.1627 37.3681 32.6405 37.8905C31.587 38.9438 30.2608 39.3969 28.6856 39.6086C27.1684 39.8125 25.2394 39.8125 22.8461 39.8125H19.1539C16.7607 39.8125 14.8316 39.8125 13.3144 39.6086C11.7392 39.3969 10.413 38.9438 9.35961 37.8905C8.83734 37.3681 8.46265 36.7787 8.19177 36.1252C6.56065 35.9208 5.19125 35.4721 4.10961 34.3905C3.05625 33.3371 2.6032 32.0108 2.39141 30.4356C2.18743 28.9184 2.18747 26.9894 2.1875 24.5961V17.4041C2.18747 15.0108 2.18743 13.0817 2.39141 11.5645C2.6032 9.98933 3.05625 8.66306 4.10961 7.6097C5.19124 6.5281 6.56061 6.07929 8.19168 5.87496C8.46258 5.22135 8.83729 4.63194 9.35961 4.10961C10.413 3.05625 11.7392 2.6032 13.3144 2.39141C14.8316 2.18743 16.7607 2.18747 19.1539 2.1875ZM7.57477 8.64582C6.80894 8.83038 6.3315 9.10012 5.96577 9.46586C5.48144 9.9502 5.16565 10.6302 4.99301 11.9143C4.81528 13.2362 4.8125 14.9881 4.8125 17.5002V24.5002C4.8125 27.0121 4.81528 28.764 4.99301 30.0858C5.16565 31.37 5.48144 32.05 5.96577 32.5342C6.33152 32.9 6.80895 33.1698 7.57479 33.3543C7.43745 31.9347 7.43747 30.1936 7.4375 28.0961V13.904C7.43747 11.8064 7.43745 10.0655 7.57477 8.64582ZM34.4253 33.3543C35.1911 33.1698 35.6685 32.9 36.0342 32.5342C36.5186 32.05 36.8343 31.37 37.0071 30.0858C37.1847 28.764 37.1875 27.0121 37.1875 24.5002V17.5002C37.1875 14.9881 37.1847 13.2362 37.0071 11.9143C36.8343 10.6302 36.5186 9.9502 36.0342 9.46586C35.6685 9.10012 35.1911 8.83038 34.4253 8.64582C34.5625 10.0655 34.5625 11.8064 34.5625 13.904V28.0961C34.5625 30.1936 34.5625 31.9347 34.4253 33.3543ZM13.6642 4.99301C12.3801 5.16565 11.7001 5.48144 11.2158 5.96577C10.7314 6.4501 10.4157 7.13011 10.243 8.41421C10.0653 9.73607 10.0625 11.488 10.0625 14V28C10.0625 30.5119 10.0653 32.2639 10.243 33.5858C10.4157 34.87 10.7314 35.5498 11.2158 36.0342C11.7001 36.5186 12.3801 36.8343 13.6642 37.0071C14.9861 37.1847 16.738 37.1875 19.25 37.1875H22.75C25.2619 37.1875 27.0139 37.1847 28.3358 37.0071C29.62 36.8343 30.2998 36.5186 30.7842 36.0342C31.2686 35.5498 31.5843 34.87 31.7571 33.5858C31.9347 32.2639 31.9375 30.5119 31.9375 28V14C31.9375 11.488 31.9347 9.73607 31.7571 8.41421C31.5843 7.13011 31.2686 6.4501 30.7842 5.96577C30.2998 5.48144 29.62 5.16565 28.3358 4.99301C27.0139 4.81528 25.2619 4.8125 22.75 4.8125H19.25C16.738 4.8125 14.9861 4.81528 13.6642 4.99301ZM14.4375 15.75C14.4375 15.0251 15.0251 14.4375 15.75 14.4375H26.25C26.9748 14.4375 27.5625 15.0251 27.5625 15.75C27.5625 16.4749 26.9748 17.0625 26.25 17.0625H15.75C15.0251 17.0625 14.4375 16.4749 14.4375 15.75ZM14.4375 22.75C14.4375 22.0252 15.0251 21.4375 15.75 21.4375H26.25C26.9748 21.4375 27.5625 22.0252 27.5625 22.75C27.5625 23.4748 26.9748 24.0625 26.25 24.0625H15.75C15.0251 24.0625 14.4375 23.4748 14.4375 22.75ZM14.4375 29.75C14.4375 29.0252 15.0251 28.4375 15.75 28.4375H21C21.7248 28.4375 22.3125 29.0252 22.3125 29.75C22.3125 30.4748 21.7248 31.0625 21 31.0625H15.75C15.0251 31.0625 14.4375 30.4748 14.4375 29.75Z" fill="white"/>
</svg>
