<svg width="42" height="42" viewBox="0 0 42 42" fill="none" xmlns="http://www.w3.org/2000/svg">
<path d="M30.6759 13.5975C30.5534 13.58 30.4309 13.58 30.3084 13.5975C27.5959 13.51 25.4434 11.2875 25.4434 8.5575C25.4434 5.775 27.7009 3.5 30.5009 3.5C33.2834 3.5 35.5584 5.7575 35.5584 8.5575C35.5409 11.2875 33.3884 13.51 30.6759 13.5975Z" fill="#004D43"/>
<path d="M36.3852 25.7257C34.4252 27.0382 31.6777 27.5282 29.1402 27.1957C29.8052 25.7607 30.1552 24.1682 30.1727 22.4882C30.1727 20.7382 29.7877 19.0757 29.0527 17.6232C31.6427 17.2732 34.3902 17.7632 36.3677 19.0757C39.1327 20.8957 39.1327 23.8882 36.3852 25.7257Z" fill="#004D43"/>
<path d="M11.2703 13.5975C11.3928 13.58 11.5153 13.58 11.6378 13.5975C14.3503 13.51 16.5028 11.2875 16.5028 8.5575C16.5028 5.7575 14.2453 3.5 11.4453 3.5C8.66277 3.5 6.40527 5.7575 6.40527 8.5575C6.40527 11.2875 8.55777 13.51 11.2703 13.5975Z" fill="#004D43"/>
<path d="M11.4644 22.4885C11.4644 24.186 11.8319 25.796 12.4969 27.2485C10.0294 27.511 7.45691 26.986 5.56691 25.7435C2.80191 23.906 2.80191 20.9135 5.56691 19.076C7.43941 17.816 10.0819 17.3085 12.5669 17.5885C11.8494 19.0585 11.4644 20.721 11.4644 22.4885Z" fill="#004D43"/>
<path d="M21.2114 27.7725C21.0714 27.755 20.9139 27.755 20.7564 27.7725C17.5364 27.6675 14.9639 25.025 14.9639 21.77C14.9814 18.445 17.6589 15.75 21.0014 15.75C24.3264 15.75 27.0214 18.445 27.0214 21.77C27.0039 25.025 24.4489 27.6675 21.2114 27.7725Z" fill="#004D43"/>
<path d="M15.5239 31.3961C12.8814 33.1636 12.8814 36.0686 15.5239 37.8186C18.5339 39.8311 23.4689 39.8311 26.4789 37.8186C29.1214 36.0511 29.1214 33.1461 26.4789 31.3961C23.4864 29.3836 18.5514 29.3836 15.5239 31.3961Z" fill="#004D43"/>
</svg>
