<svg width="36" height="36" viewBox="0 0 36 36" fill="none" xmlns="http://www.w3.org/2000/svg">
<path d="M16.5 25.404V31.5H12C11.6022 31.5 11.2206 31.658 10.9393 31.9393C10.658 32.2206 10.5 32.6021 10.5 33C10.5 33.3978 10.658 33.7793 10.9393 34.0606C11.2206 34.3419 11.6022 34.5 12 34.5H24C24.3978 34.5 24.7794 34.3419 25.0607 34.0606C25.342 33.7793 25.5 33.3978 25.5 33C25.5 32.6021 25.342 32.2206 25.0607 31.9393C24.7794 31.658 24.3978 31.5 24 31.5H19.5V25.404C23.25 24.945 28.5 22.7265 28.5 16.5C28.5 6.68547 19.0725 1.85847 18.6705 1.65747C18.4623 1.55343 18.2327 1.49927 18 1.49927C17.7673 1.49927 17.5377 1.55343 17.3295 1.65747C16.9275 1.85847 7.5 6.68547 7.5 16.5C7.5 22.7265 12.75 24.945 16.5 25.404ZM18 4.72797C19.95 5.92797 25.5 9.92997 25.5 16.5C25.5 20.7915 21.6915 22.0095 19.5 22.35V20.121L23.5605 16.0605C23.8337 15.7776 23.9849 15.3987 23.9815 15.0054C23.9781 14.6121 23.8203 14.2359 23.5422 13.9577C23.2641 13.6796 22.8879 13.5219 22.4946 13.5185C22.1013 13.515 21.7224 13.6662 21.4395 13.9395L19.5 15.879V12C19.5 11.6021 19.342 11.2206 19.0607 10.9393C18.7794 10.658 18.3978 10.5 18 10.5C17.6022 10.5 17.2206 10.658 16.9393 10.9393C16.658 11.2206 16.5 11.6021 16.5 12V15.879L14.5605 13.9395C14.2776 13.6662 13.8987 13.515 13.5054 13.5185C13.1121 13.5219 12.7359 13.6796 12.4578 13.9577C12.1797 14.2359 12.0219 14.6121 12.0185 15.0054C12.0151 15.3987 12.1663 15.7776 12.4395 16.0605L16.5 20.121V22.371C14.3085 22.026 10.5 20.82 10.5 16.5C10.5 9.92997 16.05 5.93397 18 4.72797Z" fill="white"/>
</svg>
