<svg width="44" height="44" viewBox="0 0 44 44" fill="none" xmlns="http://www.w3.org/2000/svg">
<path fill-rule="evenodd" clip-rule="evenodd" d="M16.4997 11.4583C13.7152 11.4583 11.458 13.7155 11.458 16.5C11.458 19.2844 13.7152 21.5416 16.4997 21.5416C19.2841 21.5416 21.5413 19.2844 21.5413 16.5C21.5413 13.7155 19.2841 11.4583 16.4997 11.4583ZM14.208 16.5C14.208 15.2343 15.234 14.2083 16.4997 14.2083C17.7653 14.2083 18.7913 15.2343 18.7913 16.5C18.7913 17.7656 17.7653 18.7916 16.4997 18.7916C15.234 18.7916 14.208 17.7656 14.208 16.5Z" fill="white"/>
<path fill-rule="evenodd" clip-rule="evenodd" d="M16.4998 22.4583C14.3076 22.4583 12.255 22.8996 10.6995 23.6775C9.22624 24.4141 7.79151 25.6861 7.79151 27.5L7.79127 27.6146C7.78846 28.5501 7.78373 30.1257 9.27693 31.2066C9.96984 31.708 10.8842 32.0279 12.0168 32.2318C13.1599 32.4375 14.6247 32.5416 16.4998 32.5416C18.375 32.5416 19.8398 32.4375 20.9829 32.2318C22.1155 32.0279 23.0298 31.708 23.7228 31.2066C25.2159 30.1257 25.2113 28.5501 25.2084 27.6146L25.2082 27.5C25.2082 25.6861 23.7734 24.4141 22.3001 23.6775C20.7447 22.8996 18.6921 22.4583 16.4998 22.4583ZM10.5415 27.5C10.5415 27.2888 10.7484 26.7276 11.9293 26.1371C13.028 25.5878 14.642 25.2083 16.4998 25.2083C18.3577 25.2083 19.9716 25.5878 21.0703 26.1371C22.2512 26.7276 22.4582 27.2888 22.4582 27.5C22.4582 28.6082 22.3876 28.7782 22.1102 28.9789C21.8865 29.1408 21.4258 29.3579 20.496 29.5253C19.5765 29.6906 18.2914 29.7916 16.4998 29.7916C14.7083 29.7916 13.4231 29.6906 12.5037 29.5253C11.5739 29.3579 11.1132 29.1408 10.8894 28.9789C10.6121 28.7782 10.5415 28.6082 10.5415 27.5Z" fill="white"/>
<path d="M34.8333 23.375C35.5927 23.375 36.2083 22.7594 36.2083 22C36.2083 21.2406 35.5927 20.625 34.8333 20.625H27.5C26.7406 20.625 26.125 21.2406 26.125 22C26.125 22.7594 26.7406 23.375 27.5 23.375H34.8333Z" fill="white"/>
<path d="M36.2087 16.5C36.2087 17.2594 35.593 17.875 34.8337 17.875H25.667C24.9076 17.875 24.292 17.2594 24.292 16.5C24.292 15.7406 24.9076 15.125 25.667 15.125H34.8337C35.593 15.125 36.2087 15.7406 36.2087 16.5Z" fill="white"/>
<path d="M34.833 28.875C35.5924 28.875 36.208 28.2594 36.208 27.5C36.208 26.7406 35.5924 26.125 34.833 26.125H29.333C28.5736 26.125 27.958 26.7406 27.958 27.5C27.958 28.2594 28.5736 28.875 29.333 28.875H34.833Z" fill="white"/>
<path fill-rule="evenodd" clip-rule="evenodd" d="M18.2302 5.95831H25.7704C29.1397 5.95828 31.8083 5.95826 33.8968 6.23907C36.0462 6.52804 37.7861 7.13693 39.1581 8.50892C40.53 9.88093 41.1389 11.6207 41.428 13.7701C41.7087 15.8586 41.7087 18.5273 41.7087 21.8964V22.1034C41.7087 25.4727 41.7087 28.1413 41.428 30.2298C41.1389 32.3792 40.53 34.119 39.1581 35.4911C37.7861 36.863 36.0462 37.4718 33.8968 37.761C31.8083 38.0416 29.1397 38.0416 25.7706 38.0416H18.2302C14.8611 38.0416 12.1923 38.0416 10.1038 37.761C7.95435 37.4718 6.21461 36.863 4.8426 35.4911C3.47061 34.119 2.86172 32.3792 2.57275 30.2298C2.29194 28.1413 2.29196 25.4727 2.29199 22.1034V21.8966C2.29196 18.5273 2.29194 15.8587 2.57275 13.7701C2.86172 11.6207 3.47061 9.88093 4.8426 8.50892C6.21461 7.13693 7.95435 6.52804 10.1038 6.23907C12.1923 5.95826 14.861 5.95828 18.2302 5.95831ZM10.4702 8.96454C8.62572 9.21254 7.56303 9.67758 6.78714 10.4535C6.01126 11.2293 5.54621 12.292 5.29822 14.1365C5.04491 16.0206 5.04199 18.5042 5.04199 22C5.04199 25.4958 5.04491 27.9794 5.29822 29.8635C5.54621 31.7078 6.01126 32.7706 6.78714 33.5465C7.56303 34.3224 8.62572 34.7875 10.4702 35.0353C12.3543 35.2887 14.8378 35.2916 18.3337 35.2916H25.667C29.1628 35.2916 31.6464 35.2887 33.5305 35.0353C35.3749 34.7875 36.4376 34.3224 37.2135 33.5465C37.9894 32.7706 38.4545 31.7078 38.7024 29.8635C38.9557 27.9794 38.9587 25.4958 38.9587 22C38.9587 18.5042 38.9557 16.0206 38.7024 14.1365C38.4545 12.292 37.9894 11.2293 37.2135 10.4535C36.4376 9.67758 35.3749 9.21254 33.5305 8.96454C31.6464 8.71123 29.1628 8.70831 25.667 8.70831H18.3337C14.8378 8.70831 12.3543 8.71123 10.4702 8.96454Z" fill="white"/>
</svg>
