<svg width="67" height="88" viewBox="0 0 67 88" fill="none" xmlns="http://www.w3.org/2000/svg">
<path d="M53.848 7.37641C49.9931 4.25804 45.4889 2.04221 40.666 0.891445C35.843 -0.25932 30.8237 -0.315825 25.976 0.726075C19.7129 2.07987 13.9816 5.23379 9.4864 9.80033C4.9912 14.3669 1.9279 20.1471 0.672874 26.4308C-0.488433 32.0775 -0.14203 37.9304 1.67722 43.4007C3.49646 48.871 6.72438 53.7657 11.0362 57.5922V57.7462C11.0404 59.8718 11.5398 61.9671 12.4945 63.8662C13.4493 65.7653 14.8333 67.4158 16.5369 68.6871V68.7476V74.2483C16.5369 76.4366 17.4062 78.5353 18.9535 80.0826C20.5009 81.63 22.5996 82.4993 24.7879 82.4993H26.7406C26.9612 84.017 27.7173 85.4057 28.8724 86.4145C30.0275 87.4234 31.5054 87.9857 33.0389 88C34.5725 87.9857 36.0503 87.4234 37.2054 86.4145C38.3606 85.4057 39.1167 84.017 39.3372 82.4993H41.29C43.4783 82.4993 45.577 81.63 47.1243 80.0826C48.6717 78.5353 49.541 76.4366 49.541 74.2483V68.7476V68.6871C51.2445 67.4158 52.6285 65.7653 53.5833 63.8662C54.5381 61.9671 55.0374 59.8718 55.0417 57.7462V57.5922C58.5076 54.5005 61.2798 50.7102 63.1759 46.4705C65.0721 42.2307 66.0492 37.6376 66.0431 32.9931C66.0512 28.0837 64.9601 23.2348 62.8499 18.8021C60.7396 14.3694 57.6638 10.4654 53.848 7.37641ZM44.0403 71.4979V74.2483C44.0403 74.9777 43.7505 75.6773 43.2347 76.1931C42.719 76.7088 42.0194 76.9986 41.29 76.9986H24.7879C24.0585 76.9986 23.3589 76.7088 22.8431 76.1931C22.3273 75.6773 22.0375 74.9777 22.0375 74.2483V71.4979H44.0403ZM50.5421 54.2093C50.2289 54.4674 49.9767 54.7916 49.8037 55.1587C49.6306 55.5258 49.5409 55.9267 49.541 56.3325V57.7462C49.541 59.9345 48.6717 62.0332 47.1243 63.5806C45.577 65.1279 43.4783 65.9972 41.29 65.9972H24.7879C22.5996 65.9972 20.5009 65.1279 18.9535 63.5806C17.4062 62.0332 16.5369 59.9345 16.5369 57.7462V56.3325C16.537 55.9267 16.4473 55.5258 16.2742 55.1587C16.1011 54.7916 15.8489 54.4674 15.5357 54.2093C11.675 51.0404 8.75385 46.8764 7.08825 42.1675C5.42265 37.4586 5.07592 32.3841 6.08556 27.4924C7.12678 22.2709 9.67063 17.4673 13.4046 13.6718C17.1385 9.87628 21.8999 7.25421 27.1037 6.12775C29.0333 5.71576 30.9999 5.50195 32.9729 5.48967C39.3089 5.47192 45.4566 7.64229 50.3771 11.6339C53.5588 14.2092 56.1234 17.4644 57.8824 21.1605C59.6415 24.8566 60.5504 28.8998 60.5424 32.9931C60.5471 37.0488 59.6527 41.0551 57.9236 44.7236C56.1944 48.3922 53.6734 51.6318 50.5421 54.2093ZM35.7893 19.2414C35.7893 19.9708 35.4995 20.6704 34.9837 21.1862C34.4679 21.702 33.7684 21.9917 33.0389 21.9917C30.1212 21.9917 27.3229 23.1508 25.2598 25.214C23.1966 27.2771 22.0375 30.0754 22.0375 32.9931C22.0375 33.7225 21.7478 34.4221 21.232 34.9379C20.7162 35.4537 20.0166 35.7435 19.2872 35.7435C18.5578 35.7435 17.8582 35.4537 17.3424 34.9379C16.8266 34.4221 16.5369 33.7225 16.5369 32.9931C16.5369 28.6165 18.2755 24.4191 21.3702 21.3244C24.4649 18.2297 28.6623 16.491 33.0389 16.491C33.7684 16.491 34.4679 16.7808 34.9837 17.2966C35.4995 17.8124 35.7893 18.512 35.7893 19.2414Z" fill="white"/>
</svg>
