<svg width="44" height="44" viewBox="0 0 44 44" fill="none" xmlns="http://www.w3.org/2000/svg">
<path d="M5.5 10.0833C5.5 25.7774 18.2226 38.5 33.9167 38.5C34.6247 38.5 35.3267 38.4741 36.0219 38.4232C36.8196 38.3647 37.2183 38.3356 37.5815 38.1266C37.8822 37.9535 38.1673 37.6466 38.318 37.334C38.5 36.9567 38.5 36.5165 38.5 35.6363V30.4713C38.5 29.731 38.5 29.3608 38.3781 29.0437C38.2707 28.7634 38.0957 28.5138 37.8691 28.3169C37.6127 28.094 37.2647 27.9675 36.5691 27.7145L30.69 25.5767C29.8806 25.2824 29.4758 25.1352 29.0919 25.1601C28.7533 25.1821 28.4275 25.2978 28.1507 25.494C27.8368 25.7164 27.6153 26.0856 27.1722 26.8242L25.6667 29.3333C20.8085 27.1332 16.8702 23.1897 14.6667 18.3333L17.1758 16.8278C17.9143 16.3847 18.2836 16.1632 18.506 15.8493C18.7022 15.5725 18.8179 15.2467 18.8399 14.9081C18.8648 14.5242 18.7176 14.1195 18.4234 13.3101L16.2855 7.43088C16.0325 6.73523 15.906 6.38739 15.6831 6.13085C15.4862 5.90423 15.2366 5.72944 14.9564 5.62183C14.6391 5.5 14.269 5.5 13.5288 5.5H8.36368C7.48345 5.5 7.04332 5.5 6.66596 5.68196C6.35342 5.83268 6.04659 6.11785 5.87345 6.41855C5.66441 6.78163 5.63521 7.18047 5.5768 7.97817C5.5259 8.67324 5.5 9.37526 5.5 10.0833Z" stroke="white" stroke-width="3" stroke-linecap="round" stroke-linejoin="round"/>
</svg>
