<svg width="40" height="40" viewBox="0 0 40 40" fill="none" xmlns="http://www.w3.org/2000/svg">
<g clip-path="url(#clip0_3534_1378)">
<path d="M5 0C3.62305 0 2.5 1.12305 2.5 2.5V22.5C2.5 28.75 7.04102 33.1152 11.1133 35.8301C15.1855 38.5449 19.209 39.873 19.209 39.873C19.7266 40.0488 20.2734 40.0488 20.791 39.873C20.791 39.873 24.8145 38.5449 28.8867 35.8301C32.959 33.1152 37.5 28.75 37.5 22.5V2.5C37.5 1.12305 36.377 0 35 0H5ZM7.5 5H32.5V22.5C32.5 26.25 29.541 29.3848 26.1133 31.6699C23.0762 33.6914 20.6641 34.4922 20 34.7363C19.3359 34.4922 16.9238 33.6914 13.8867 31.6699C10.459 29.3848 7.5 26.25 7.5 22.5V5ZM10 7.5V22.5C10 25 12.168 27.5195 15.2734 29.5898C17.6074 31.1426 18.9551 31.5527 20 31.9629V7.5H10Z" fill="#004D43"/>
</g>
<defs>
<clipPath id="clip0_3534_1378">
<rect width="40" height="40" fill="white"/>
</clipPath>
</defs>
</svg>
