<svg width="54" height="41" viewBox="0 0 54 41" fill="none" xmlns="http://www.w3.org/2000/svg">
<g clip-path="url(#clip0_3534_2280)">
<path d="M11.181 27.9287C12.536 18.6695 20.281 11.0164 30.7751 7.32955C28.3065 4.27377 24.957 1.79095 21.0864 0C6.58718 5.248 -0.253844 18.2108 5.78266 29.7021C7.26502 32.5261 9.40794 34.997 12.0047 37.0793C11.0177 34.1069 10.7299 31.0111 11.181 27.9287Z" fill="white"/>
<path d="M46.3534 7.46757C30.3071 6.91567 16.2359 15.9072 14.4361 28.2033C13.7812 32.6816 14.8456 37.0029 17.2211 40.7928C17.4462 40.8159 17.6667 40.8433 17.8908 40.8622C33.9674 42.2181 48.4474 33.4227 50.2332 21.217C50.9611 16.2428 49.4676 11.4696 46.3534 7.46757ZM30.6881 27.6493C25.5665 33.6727 20.804 38.256 20.0511 37.8876C19.3003 37.5185 22.8444 32.3378 27.9695 26.3151C33.0929 20.2918 37.8555 15.7083 38.6073 16.0768C39.3603 16.4459 35.8143 21.6267 30.6881 27.6493Z" fill="white"/>
</g>
<defs>
<clipPath id="clip0_3534_2280">
<rect width="54" height="41" fill="white"/>
</clipPath>
</defs>
</svg>
