<svg width="46" height="47" viewBox="0 0 46 47" fill="none" xmlns="http://www.w3.org/2000/svg">
<path d="M44.5625 25.5623H43.0228C42.7128 20.4921 38.8662 16.3879 33.9592 15.7763C36.3875 14.2866 38.0215 11.5868 38.0215 8.50106C38.0215 3.81412 34.2679 0 29.6541 0C25.0402 0 21.288 3.81412 21.288 8.50106C21.288 11.5881 22.9206 14.2866 25.349 15.7763C20.4419 16.3879 16.5953 20.4921 16.2853 25.5623H14.2083V18.8908C14.2083 18.5286 13.919 18.2346 13.5625 18.2346H9.90321V15.6096C9.90321 15.2473 9.61387 14.9533 9.25737 14.9533H5.59679V13.4767C5.59679 13.1145 5.30746 12.8205 4.95096 12.8205H0.645833C0.289333 12.8205 0 13.1145 0 13.4767V26.2185V33.0002C0 33.3624 0.289333 33.6564 0.645833 33.6564H4.30513V45.36C4.30513 45.7223 4.59446 46.0163 4.95096 46.0163H40.2574C40.6139 46.0163 40.9032 45.7223 40.9032 45.36V33.6564H44.5625C44.919 33.6564 45.2083 33.3624 45.2083 33.0002V26.2185C45.2083 25.8562 44.919 25.5623 44.5625 25.5623ZM22.5796 8.49975C22.5796 4.536 25.7533 1.31119 29.6541 1.31119C33.5562 1.31119 36.7298 4.536 36.7298 8.49975C36.7298 12.4635 33.5562 15.6883 29.6541 15.6883C25.7533 15.6896 22.5796 12.4648 22.5796 8.49975ZM26.6161 17.0021H32.6921C37.4764 17.0021 41.4082 20.7861 41.7402 25.5623H17.568C17.8986 20.7847 21.8305 17.0021 26.6161 17.0021ZM5.59679 25.5623V18.6441H8.61154V18.8908V25.5623H5.59679ZM1.29167 25.5623V16.4299H4.30513V25.5623H1.29167ZM9.90321 21.9384H12.9167V25.5623H9.90321V21.9384ZM12.9167 19.5471V20.6259H9.90321V19.5471H12.9167ZM8.61154 17.3329H5.59679V16.2658H8.61154V17.3329ZM4.30513 14.133V15.1174H1.29167V14.133H4.30513ZM39.6115 44.7038H5.59679V33.6564H39.6115V44.7038ZM43.9167 32.3439H40.2574H4.95096H1.29167V26.8748H4.95096H9.25737H13.5625H16.8989H42.4093H43.9167V32.3439Z" fill="white"/>
</svg>
