<svg width="34" height="42" viewBox="0 0 34 42" fill="none" xmlns="http://www.w3.org/2000/svg">
<path d="M12.3826 0C11.8394 0 11.3549 0.0345091 10.9505 0.113387C7.65839 0.754975 1.94502 4.5145 0.393472 5.79781C-0.351348 6.41419 -0.0559312 7.64497 1.42673 7.64497C2.06762 7.64497 2.92998 7.4151 4.02602 6.80661C6.02959 5.69415 8.48273 5.20426 10.7238 5.20426C12.5458 5.20426 14.2277 5.5278 15.4154 6.10333C16.0038 6.38841 16.0019 6.48377 15.6606 6.48377C14.9751 6.48377 12.9196 6.09952 11.5264 6.09952C10.841 6.09952 10.3161 6.19249 10.1932 6.46997C9.62569 7.75371 11.826 8.16697 14.1269 8.91913C15.8115 9.47001 17.867 9.88581 19.8249 9.88581C20.6412 9.88581 21.4467 9.81341 22.195 9.64861C25.5934 8.90012 27.8758 8.3367 28.7477 8.15359V0.949776C27.1782 1.36529 25.7287 1.76363 24.8062 1.76363C23.1134 1.76363 16.2607 0 12.3826 0Z" fill="white"/>
<path d="M12.691 34.1122H12.511C11.8569 34.1122 11.1347 33.554 11.1347 33.0036V25.0181C11.1347 24.4713 11.7697 24.0276 12.3582 24.022L14.8658 24.0225C13.8549 23.3888 13.2396 22.523 13.2396 21.4384C13.2396 20.1417 14.1921 19.0073 15.5518 18.4776H12.1462C13.6186 17.712 14.5948 16.3774 14.5948 14.858C14.5948 13.6059 13.9321 12.4792 12.8755 11.6928C11.9265 10.9864 10.6593 10.5547 9.26735 10.5547C9.13551 10.5547 9.00524 10.5599 8.87584 10.5675C6.1163 10.7295 3.93956 12.5878 3.93956 14.858C3.93956 16.3774 4.91562 17.712 6.388 18.4776H2.82835H2.76277H2.41521V18.4971C1.71765 18.5978 0.845703 19.1035 0.845703 19.7547V30.4201C0.845703 31.1492 1.85996 31.8588 2.76277 31.8588H2.82835C3.60717 31.8588 4.15912 31.3678 4.33351 30.7646V40.0451C4.33351 41.1227 5.5286 42.0002 6.86269 42.0002H6.93977C8.1605 42.0002 9.1669 41.2684 9.32978 40.3185C9.49249 41.2684 10.4991 42.0002 11.7193 42.0002H11.7964C12.5046 42.0002 13.0528 41.7485 13.576 41.3564V33.5403C13.4018 33.8164 13.1102 34.1122 12.691 34.1122Z" fill="white"/>
<path d="M22.1391 11.3767C20.8079 12.159 19.9417 13.4264 19.9417 14.8579C19.9417 16.3773 20.918 17.7119 22.3904 18.4775H19.002C20.3594 19.0052 21.2976 20.1335 21.2976 21.4286C21.2976 22.5129 20.6402 23.389 19.6294 24.0227L22.1881 24.0271C22.9728 24.0838 23.3425 24.5691 23.3425 25.0863V33.1396C23.3425 33.6901 22.8678 34.2529 22.186 34.2529H22.1366C21.6551 34.2529 21.2498 33.9242 20.9011 33.5929V41.426C21.4242 41.778 22.0742 41.9999 22.7402 41.9999H22.8173C24.0375 41.9999 25.0442 41.268 25.2069 40.3181C25.3696 41.268 26.3762 41.9999 27.5968 41.9999H27.6739C29.0078 41.9999 29.9692 41.1223 29.9692 40.0447V30.7642C30.1436 31.3672 30.9294 31.8584 31.7082 31.8584H31.7738C32.6764 31.8584 33.457 31.1488 33.457 30.4197V19.7543C33.457 19.0717 32.7594 18.548 31.8875 18.4841V18.4773H31.7738H31.7082H28.1485C29.6209 17.7118 30.597 16.3772 30.597 14.8578C30.597 12.5892 28.4236 10.7321 25.667 10.5677C25.5355 10.5598 25.4031 10.5544 25.2694 10.5544C24.0994 10.5546 23.018 10.8601 22.1391 11.3767Z" fill="white"/>
</svg>
