<svg width="51" height="52" viewBox="0 0 51 52" fill="none" xmlns="http://www.w3.org/2000/svg">
<path fill-rule="evenodd" clip-rule="evenodd" d="M6.74772 10.1822C4.50213 12.5385 3.23828 15.7316 3.23828 19.0612C3.23828 22.3925 4.50213 25.5856 6.74772 27.9402L22.0876 44.0261C22.9928 44.9751 24.2216 45.5049 25.503 45.5049C26.7828 45.5049 28.0131 44.9751 28.9184 44.0261C31.6963 41.1125 44.2455 27.9272 44.2455 27.9272C46.4911 25.5726 47.7549 22.3795 47.7549 19.0482C47.7549 15.717 46.4911 12.5255 44.2455 10.1692C41.9839 7.79837 38.9144 6.46912 35.7157 6.46912C32.5171 6.46912 29.4491 7.79837 27.1876 10.1692L25.4902 11.9486L23.8056 10.1822C21.5441 7.81137 18.4761 6.48212 15.2775 6.48212C12.0788 6.48212 9.00925 7.81137 6.74772 10.1822ZM9.03316 12.4491C10.6891 10.712 12.9347 9.73212 15.2775 9.73212C17.6203 9.73212 19.8643 10.712 21.5202 12.4491L24.3475 15.4131C24.6471 15.7267 25.0599 15.9055 25.4902 15.9055C25.9205 15.9055 26.3333 15.7267 26.6329 15.4131L29.473 12.4345C31.1289 10.699 33.3729 9.71912 35.7157 9.71912C38.0585 9.71912 40.3025 10.699 41.96 12.4345C41.9648 12.441 41.9696 12.4459 41.976 12.4524C43.6319 14.1895 44.5674 16.5685 44.5674 19.0482C44.5674 21.528 43.6319 23.9086 41.96 25.662C41.96 25.662 29.4108 38.8472 26.6329 41.7609C26.3333 42.0745 25.9269 42.2549 25.503 42.2549C25.079 42.2549 24.6726 42.0745 24.373 41.7609L9.03316 25.675C7.36131 23.9216 6.42578 21.541 6.42578 19.0612C6.42578 16.5815 7.36131 14.2025 9.03316 12.4491Z" fill="white"/>
<path fill-rule="evenodd" clip-rule="evenodd" d="M23.9034 24.3799H20.7207C19.841 24.3799 19.127 25.1079 19.127 26.0049C19.127 26.9019 19.841 27.6299 20.7207 27.6299H23.9034V30.875C23.9034 31.772 24.6174 32.5 25.4972 32.5C26.3769 32.5 27.0909 31.772 27.0909 30.875V27.6299H30.2736C31.1534 27.6299 31.8674 26.9019 31.8674 26.0049C31.8674 25.1079 31.1534 24.3799 30.2736 24.3799H27.0909V21.1348C27.0909 20.2378 26.3769 19.5098 25.4972 19.5098C24.6174 19.5098 23.9034 20.2378 23.9034 21.1348V24.3799Z" fill="white"/>
</svg>
