<svg width="52" height="47" viewBox="0 0 52 47" fill="none" xmlns="http://www.w3.org/2000/svg">
<path d="M9.27778 18.1525V32.0863C9.27778 35.7316 9.27778 37.5542 10.0589 38.9463C10.746 40.171 11.8423 41.1666 13.1908 41.7906C14.7239 42.5 16.7307 42.5 20.7444 42.5H31.2556C35.2694 42.5 37.276 42.5 38.8092 41.7906C40.1578 41.1666 41.254 40.171 41.9411 38.9463C42.7222 37.5542 42.7222 35.7316 42.7222 32.0863V7.78782M47.5 22.9744L34.5207 9.87916C31.5687 6.90092 30.0929 5.41181 28.3545 4.86205C26.828 4.37921 25.1663 4.37932 23.6395 4.86238C21.9014 5.41235 20.4258 6.90168 17.4744 9.88031L4.5 22.9744" stroke="white" stroke-width="9" stroke-linecap="round" stroke-linejoin="round"/>
</svg>
