<svg width="49" height="47" viewBox="0 0 49 47" fill="none" xmlns="http://www.w3.org/2000/svg">
<g clip-path="url(#clip0_3534_2288)">
<path d="M32.0138 37.4028H29.4039V33.4556C29.4039 32.8411 28.8845 32.343 28.2441 32.343H4.92973C4.28911 32.343 3.76979 32.8411 3.76979 33.4556V37.4028H1.15994C0.519321 37.4028 0 37.9008 0 38.5153V44.9683C0 45.5827 0.519321 46.0809 1.15994 46.0809H32.0138C32.6543 46.0809 33.1737 45.5826 33.1737 44.9683V38.5153C33.1737 37.9008 32.6543 37.4028 32.0138 37.4028Z" fill="white"/>
<path d="M48.3198 31.3453L32.1145 15.8011L33.1395 14.8178L33.5899 15.2498C34.043 15.6844 34.7774 15.6843 35.2304 15.2498L39.2492 11.3951C39.7019 10.9606 39.7023 10.2561 39.2492 9.82167L30.3077 1.24493C29.8547 0.810399 29.1203 0.810497 28.6674 1.24493L24.6486 5.0998C24.1956 5.53423 24.1956 6.23877 24.6486 6.6732L25.099 7.10519L19.7677 12.2189L19.3173 11.7868C18.8645 11.3524 18.1299 11.3524 17.6769 11.7868L13.6581 15.6417C13.2051 16.0761 13.2051 16.7807 13.6581 17.2151L22.5995 25.7916C23.0525 26.2261 23.7871 26.2261 24.2399 25.7916L28.2588 21.9368C28.7116 21.5022 28.7116 20.7979 28.2588 20.3634L27.8084 19.9314L28.8334 18.948L45.0389 34.4921C45.9448 35.3611 47.4136 35.3611 48.3195 34.4921C49.2257 33.623 49.2257 32.2142 48.3198 31.3453Z" fill="white"/>
</g>
<defs>
<clipPath id="clip0_3534_2288">
<rect width="49" height="47" fill="white"/>
</clipPath>
</defs>
</svg>
