<svg width="12" height="17" viewBox="0 0 12 17" fill="none" xmlns="http://www.w3.org/2000/svg">
<path fill-rule="evenodd" clip-rule="evenodd" d="M1.37892 10.868L6 17.0085L10.6211 10.868C11.5137 9.68196 12 8.20824 12 6.68929V6.37819C12 2.85561 9.3137 0 6 0C2.68629 0 0 2.85561 0 6.37819V6.68929C0 8.20824 0.4863 9.68196 1.37892 10.868ZM6 8.50425C7.10457 8.50425 8 7.55238 8 6.37819C8 5.20399 7.10457 4.25212 6 4.25212C4.89543 4.25212 4 5.20399 4 6.37819C4 7.55238 4.89543 8.50425 6 8.50425Z" fill="#004D43"/>
</svg>
