<svg width="24" height="25" viewBox="0 0 24 25" fill="none" xmlns="http://www.w3.org/2000/svg">
<path d="M0 3.47222C0 15.3617 9.25279 25 20.6667 25C21.1816 25 21.6921 24.9804 22.1977 24.9418C22.7779 24.8975 23.0679 24.8754 23.332 24.7171C23.5507 24.586 23.758 24.3535 23.8676 24.1167C24 23.8308 24 23.4974 24 22.8306V18.9176C24 18.3568 24 18.0764 23.9113 17.8361C23.8332 17.6237 23.706 17.4347 23.5412 17.2856C23.3547 17.1167 23.1016 17.0208 22.5957 16.8292L18.32 15.2096C17.7313 14.9867 17.4369 14.8751 17.1577 14.894C16.9115 14.9107 16.6745 14.9983 16.4732 15.1469C16.2449 15.3154 16.0839 15.5951 15.7616 16.1547L14.6667 18.0556C11.1335 16.3888 8.2692 13.4012 6.66667 9.72222L8.49151 8.58169C9.0286 8.24601 9.29715 8.07817 9.45893 7.84036C9.6016 7.63067 9.68573 7.38385 9.70173 7.12736C9.71987 6.83649 9.6128 6.5299 9.3988 5.91674L7.84399 1.46279C7.66 0.935777 7.56801 0.672264 7.40589 0.477917C7.26268 0.306236 7.08119 0.17382 6.87736 0.0922918C6.64661 1.65568e-07 6.37744 0 5.83909 0H2.08268C1.44251 0 1.12241 1.0348e-07 0.847973 0.137847C0.620667 0.252028 0.39752 0.468069 0.2716 0.695875C0.119573 0.97093 0.0983332 1.27308 0.0558532 1.8774C0.0188399 2.40397 0 2.93581 0 3.47222Z" fill="#004D43"/>
</svg>
