<svg width="47" height="50" viewBox="0 0 47 50" fill="none" xmlns="http://www.w3.org/2000/svg">
<path d="M23.762 20C16.7925 19.9126 11.4684 15.3726 11.4213 10C11.5364 4.40279 17.1822 0.03925 23.762 0C30.7378 0.21375 36.0533 4.54042 36.1029 10C35.9657 15.6016 30.3486 19.9621 23.762 20ZM33.7397 22.0745C42.5116 22.1575 46.9595 28.3924 47 34.6274V50H38.4007L38.4008 36.4894C38.1914 35.5554 37.4107 35.2387 36.6955 35.3303C36.0259 35.416 35.4136 35.8595 35.3812 36.4894V50H11.4878V36.4894C11.3049 35.6005 10.6071 35.2587 9.92819 35.2932C9.20121 35.3302 8.49599 35.7988 8.46822 36.4894V50H0.000363861V34.6274C-0.0500278 27.9826 5.13728 22.1238 13.3252 22.0745H33.7397Z" fill="white"/>
</svg>
