<svg width="44" height="44" viewBox="0 0 44 44" fill="none" xmlns="http://www.w3.org/2000/svg">
<path fill-rule="evenodd" clip-rule="evenodd" d="M16.5002 11.4585C13.7157 11.4585 11.4585 13.7157 11.4585 16.5002C11.4585 19.2846 13.7157 21.5418 16.5002 21.5418C19.2846 21.5418 21.5418 19.2846 21.5418 16.5002C21.5418 13.7157 19.2846 11.4585 16.5002 11.4585ZM14.2085 16.5002C14.2085 15.2345 15.2345 14.2085 16.5002 14.2085C17.7658 14.2085 18.7918 15.2345 18.7918 16.5002C18.7918 17.7658 17.7658 18.7918 16.5002 18.7918C15.2345 18.7918 14.2085 17.7658 14.2085 16.5002Z" fill="#24ACC3"/>
<path fill-rule="evenodd" clip-rule="evenodd" d="M16.4998 22.4585C14.3076 22.4585 12.255 22.8998 10.6995 23.6777C9.22624 24.4143 7.79151 25.6863 7.79151 27.5002L7.79127 27.6147C7.78846 28.5503 7.78373 30.1259 9.27693 31.2068C9.96984 31.7082 10.8842 32.0281 12.0168 32.232C13.1599 32.4377 14.6247 32.5418 16.4998 32.5418C18.375 32.5418 19.8398 32.4377 20.9829 32.232C22.1155 32.0281 23.0298 31.7082 23.7228 31.2068C25.2159 30.1259 25.2113 28.5503 25.2084 27.6147L25.2082 27.5002C25.2082 25.6863 23.7734 24.4143 22.3001 23.6777C20.7447 22.8998 18.6921 22.4585 16.4998 22.4585ZM10.5415 27.5002C10.5415 27.289 10.7484 26.7278 11.9293 26.1373C13.028 25.588 14.642 25.2085 16.4998 25.2085C18.3577 25.2085 19.9716 25.588 21.0703 26.1373C22.2512 26.7278 22.4582 27.289 22.4582 27.5002C22.4582 28.6084 22.3876 28.7784 22.1102 28.9791C21.8865 29.141 21.4258 29.3581 20.496 29.5254C19.5765 29.6908 18.2914 29.7918 16.4998 29.7918C14.7083 29.7918 13.4231 29.6908 12.5037 29.5254C11.5739 29.3581 11.1132 29.141 10.8894 28.9791C10.6121 28.7784 10.5415 28.6084 10.5415 27.5002Z" fill="#24ACC3"/>
<path d="M34.8333 23.375C35.5927 23.375 36.2083 22.7594 36.2083 22C36.2083 21.2406 35.5927 20.625 34.8333 20.625H27.5C26.7406 20.625 26.125 21.2406 26.125 22C26.125 22.7594 26.7406 23.375 27.5 23.375H34.8333Z" fill="#24ACC3"/>
<path d="M36.2082 16.5C36.2082 17.2594 35.5925 17.875 34.8332 17.875H25.6665C24.9071 17.875 24.2915 17.2594 24.2915 16.5C24.2915 15.7406 24.9071 15.125 25.6665 15.125H34.8332C35.5925 15.125 36.2082 15.7406 36.2082 16.5Z" fill="#24ACC3"/>
<path d="M34.8335 28.875C35.5929 28.875 36.2085 28.2594 36.2085 27.5C36.2085 26.7406 35.5929 26.125 34.8335 26.125H29.3335C28.5741 26.125 27.9585 26.7406 27.9585 27.5C27.9585 28.2594 28.5741 28.875 29.3335 28.875H34.8335Z" fill="#24ACC3"/>
<path fill-rule="evenodd" clip-rule="evenodd" d="M18.2297 5.9585H25.7699C29.1392 5.95846 31.8078 5.95844 33.8963 6.23925C36.0457 6.52822 37.7856 7.13711 39.1576 8.5091C40.5295 9.88112 41.1384 11.6209 41.4275 13.7703C41.7082 15.8588 41.7082 18.5275 41.7082 21.8966V22.1036C41.7082 25.4729 41.7082 28.1415 41.4275 30.23C41.1384 32.3794 40.5295 34.1192 39.1576 35.4913C37.7856 36.8632 36.0457 37.472 33.8963 37.7611C31.8078 38.0418 29.1392 38.0418 25.7701 38.0418H18.2298C14.8606 38.0418 12.1918 38.0418 10.1033 37.7611C7.95386 37.472 6.21412 36.8632 4.84211 35.4913C3.47012 34.1192 2.86123 32.3794 2.57226 30.23C2.29145 28.1415 2.29147 25.4729 2.2915 22.1036V21.8968C2.29147 18.5275 2.29145 15.8588 2.57226 13.7703C2.86123 11.6209 3.47012 9.88112 4.84211 8.5091C6.21412 7.13711 7.95386 6.52822 10.1033 6.23925C12.1919 5.95844 14.8605 5.95846 18.2297 5.9585ZM10.4697 8.96472C8.62523 9.21272 7.56254 9.67776 6.78665 10.4536C6.01077 11.2295 5.54573 12.2922 5.29773 14.1367C5.04442 16.0208 5.0415 18.5044 5.0415 22.0002C5.0415 25.496 5.04442 27.9796 5.29773 29.8637C5.54573 31.708 6.01077 32.7708 6.78665 33.5467C7.56254 34.3225 8.62523 34.7877 10.4697 35.0355C12.3538 35.2889 14.8373 35.2918 18.3332 35.2918H25.6665C29.1623 35.2918 31.6459 35.2889 33.53 35.0355C35.3744 34.7877 36.4372 34.3225 37.213 33.5467C37.9889 32.7708 38.454 31.708 38.7019 29.8637C38.9552 27.9796 38.9582 25.496 38.9582 22.0002C38.9582 18.5044 38.9552 16.0208 38.7019 14.1367C38.454 12.2922 37.9889 11.2295 37.213 10.4536C36.4372 9.67776 35.3744 9.21272 33.53 8.96472C31.6459 8.71141 29.1623 8.7085 25.6665 8.7085H18.3332C14.8373 8.7085 12.3538 8.71141 10.4697 8.96472Z" fill="#24ACC3"/>
</svg>
