<svg width="105" height="105" viewBox="1226 808 105 105" fill="none" xmlns="http://www.w3.org/2000/svg">
  <defs>
    <linearGradient id="community-hub-gradient" x1="1278.5" y1="808" x2="1346" y2="955.5" gradientUnits="userSpaceOnUse">
      <stop stop-color="#231B63" />
      <stop offset="1" stop-color="#4837C9" />
    </linearGradient>
  </defs>
  <rect x="1226" y="808" width="105" height="105" rx="11" fill="url(#community-hub-gradient)" />
  <path d="M1279 835.542L1277.6 837.06C1278.39 837.786 1279.61 837.786 1280.4 837.06L1279 835.542ZM1275.13 849.539C1273.23 848.156 1271.2 846.473 1269.67 844.7C1268.09 842.869 1267.31 841.251 1267.31 839.966H1263.19C1263.19 842.764 1264.78 845.339 1266.55 847.394C1268.37 849.507 1270.68 851.402 1272.7 852.873L1275.13 849.539ZM1267.31 839.966C1267.31 837.054 1268.74 835.394 1270.46 834.815C1272.26 834.212 1274.93 834.602 1277.6 837.06L1280.4 834.023C1276.88 830.795 1272.68 829.716 1269.15 830.905C1265.54 832.12 1263.19 835.515 1263.19 839.966H1267.31ZM1285.3 852.873C1287.32 851.402 1289.63 849.507 1291.45 847.394C1293.22 845.339 1294.81 842.764 1294.81 839.966H1290.69C1290.69 841.251 1289.91 842.869 1288.33 844.7C1286.8 846.473 1284.77 848.156 1282.87 849.539L1285.3 852.873ZM1294.81 839.966C1294.81 835.515 1292.46 832.12 1288.85 830.905C1285.32 829.716 1281.12 830.795 1277.6 834.023L1280.4 837.06C1283.07 834.602 1285.74 834.212 1287.54 834.815C1289.26 835.394 1290.69 837.054 1290.69 839.966H1294.81ZM1272.7 852.873C1274.77 854.386 1276.42 855.672 1279 855.672V851.546C1278 851.546 1277.45 851.23 1275.13 849.539L1272.7 852.873ZM1282.87 849.539C1280.55 851.23 1280 851.546 1279 851.546V855.672C1281.58 855.672 1283.23 854.386 1285.3 852.873L1282.87 849.539Z" fill="white"/>
  <path d="M1259.75 883.068H1265.96C1268.74 883.068 1271.55 883.358 1274.26 883.915C1279.05 884.901 1284.08 885.02 1288.92 884.238C1291.3 883.852 1293.65 883.262 1295.77 882.238C1297.68 881.314 1300.03 880.011 1301.6 878.551C1303.18 877.094 1304.82 874.709 1305.98 872.844C1306.98 871.246 1306.5 869.285 1304.92 868.093C1303.17 866.77 1300.56 866.771 1298.81 868.094L1293.84 871.848C1291.92 873.303 1289.81 874.642 1287.31 875.042C1287.01 875.09 1286.69 875.134 1286.36 875.172M1286.36 875.172C1286.26 875.184 1286.16 875.195 1286.06 875.205M1286.36 875.172C1286.76 875.087 1287.16 874.839 1287.53 874.513C1289.3 872.969 1289.41 870.368 1287.88 868.644C1287.52 868.244 1287.11 867.91 1286.64 867.634C1278.95 863.045 1266.98 866.54 1259.75 871.668M1286.36 875.172C1286.26 875.194 1286.16 875.205 1286.06 875.205M1286.06 875.205C1284.62 875.353 1282.94 875.391 1281.07 875.215" stroke="white" stroke-width="4" stroke-linecap="round"/>
</svg>
