<svg width="105" height="105" viewBox="666 808 105 105" fill="none" xmlns="http://www.w3.org/2000/svg">
  <defs>
    <linearGradient id="cultural-identity-gradient" x1="686.457" y1="808" x2="785.5" y2="954" gradientUnits="userSpaceOnUse">
      <stop stop-color="#7F381B" />
      <stop offset="1" stop-color="#E56431" />
    </linearGradient>
  </defs>
  <rect x="666" y="808" width="105" height="105" rx="11" fill="url(#cultural-identity-gradient)" />
  <path d="M696.416 853.672C696.1 853.675 695.788 853.594 695.513 853.437C695.312 853.324 695.135 853.172 694.993 852.989C694.851 852.807 694.747 852.598 694.686 852.375C694.626 852.151 694.611 851.918 694.642 851.689C694.673 851.46 694.749 851.239 694.867 851.04C697.126 847.269 704 838.467 719 838.467C725.501 838.467 731.202 840.174 735.937 843.54C739.835 846.302 742.019 849.429 743.06 850.934C743.192 851.124 743.285 851.338 743.332 851.565C743.38 851.791 743.383 852.024 743.339 852.251C743.295 852.478 743.207 852.694 743.078 852.887C742.95 853.079 742.784 853.243 742.591 853.371C742.197 853.631 741.716 853.728 741.252 853.641C740.787 853.553 740.375 853.288 740.102 852.902C738.219 850.194 732.477 841.953 719 841.953C705.846 841.953 699.899 849.536 697.961 852.788C697.806 853.06 697.58 853.285 697.309 853.44C697.037 853.596 696.729 853.676 696.416 853.672Z" fill="white"/>
  <path d="M726.558 888.125C726.408 888.127 726.259 888.11 726.113 888.075C715.233 885.379 711.17 874.502 711.004 874.05L710.979 873.95C710.89 873.636 708.706 866.177 712.058 861.808C713.594 859.816 715.931 858.794 719.017 858.794C721.885 858.794 723.955 859.686 725.377 861.532C726.549 863.039 727.018 864.897 727.472 866.688C728.424 870.417 729.112 872.375 733.072 872.577C734.811 872.665 735.954 871.647 736.602 870.781C738.354 868.42 738.658 864.57 737.338 861.172C735.641 856.786 729.618 848.516 719 848.516C714.467 848.516 710.302 849.972 706.963 852.71C704.198 854.977 702.008 858.179 700.953 861.47C698.997 867.596 701.563 877.227 701.587 877.315C701.647 877.539 701.662 877.773 701.63 878.002C701.598 878.232 701.52 878.453 701.401 878.652C701.283 878.852 701.125 879.025 700.938 879.163C700.751 879.3 700.539 879.399 700.313 879.453C699.858 879.574 699.372 879.512 698.962 879.28C698.551 879.048 698.248 878.664 698.117 878.211C698 877.772 695.26 867.5 697.52 860.42C699.981 852.747 707.575 845.013 719.004 845.013C724.285 845.013 729.275 846.808 733.44 850.198C736.665 852.835 739.299 856.377 740.677 859.917C742.429 864.437 741.959 869.51 739.483 872.824C737.833 875.034 735.484 876.19 732.881 876.064C726.1 875.724 724.882 870.991 723.993 867.539C723.079 863.997 722.495 862.29 719.004 862.29C717.086 862.29 715.74 862.817 714.902 863.909C713.759 865.404 713.67 867.739 713.797 869.434C713.88 870.614 714.08 871.784 714.395 872.925C714.674 873.628 718.305 882.534 727.003 884.689C727.228 884.742 727.44 884.84 727.626 884.976C727.813 885.112 727.971 885.283 728.091 885.481C728.211 885.678 728.291 885.897 728.325 886.126C728.36 886.354 728.348 886.587 728.292 886.811C728.186 887.19 727.959 887.523 727.646 887.76C727.333 887.997 726.95 888.125 726.558 888.125Z" fill="white"/>
  <path d="M712.591 887.321C712.347 887.322 712.105 887.273 711.881 887.178C711.656 887.083 711.453 886.944 711.283 886.769C706.928 882.199 704.465 877.088 703.538 870.698V870.664C703.018 866.434 703.78 860.444 707.512 856.326C710.267 853.287 714.14 851.743 719.003 851.743C724.755 851.743 729.275 854.417 732.093 859.464C734.138 863.131 734.544 866.785 734.554 866.935C734.576 867.166 734.551 867.4 734.482 867.621C734.414 867.843 734.302 868.049 734.153 868.228C734.004 868.406 733.822 868.554 733.616 868.662C733.411 868.77 733.186 868.836 732.955 868.857C732.488 868.908 732.02 868.773 731.652 868.481C731.284 868.19 731.045 867.765 730.987 867.3C730.678 865.107 729.969 862.99 728.894 861.055C726.71 857.2 723.386 855.241 718.99 855.241C715.194 855.241 712.223 856.384 710.179 858.639C707.233 861.891 706.664 866.901 707.068 870.215C707.88 875.866 710.051 880.361 713.886 884.378C714.046 884.545 714.171 884.742 714.253 884.958C714.336 885.173 714.374 885.403 714.365 885.634C714.357 885.865 714.302 886.092 714.205 886.301C714.107 886.51 713.968 886.698 713.797 886.852C713.466 887.152 713.037 887.319 712.591 887.321Z" fill="white"/>
  <path d="M732.653 882.287C728.844 882.287 725.606 881.232 723.015 879.136C717.81 874.941 717.226 868.111 717.2 867.822C717.164 867.349 717.316 866.881 717.625 866.52C717.934 866.16 718.373 865.936 718.846 865.9C719.319 865.863 719.788 866.016 720.148 866.325C720.509 866.633 720.732 867.072 720.769 867.546C720.781 867.646 721.302 873.234 725.314 876.452C727.688 878.348 730.862 879.1 734.772 878.661C735.24 878.604 735.711 878.735 736.082 879.024C736.453 879.314 736.695 879.738 736.754 880.205C736.78 880.436 736.759 880.67 736.693 880.892C736.628 881.115 736.519 881.322 736.372 881.502C736.225 881.682 736.044 881.831 735.84 881.941C735.635 882.05 735.41 882.117 735.179 882.139C734.34 882.237 733.497 882.286 732.653 882.287Z" fill="white"/>
  <path d="M735.662 835.718C734.176 834.751 728.907 831.875 719 831.875C708.601 831.875 703.319 835.052 702.151 835.859C702.074 835.907 702.001 835.962 701.935 836.023C701.928 836.03 701.919 836.034 701.909 836.035C701.723 836.198 701.573 836.399 701.47 836.624C701.367 836.849 701.314 837.094 701.313 837.342C701.316 837.574 701.365 837.803 701.457 838.016C701.549 838.23 701.682 838.423 701.849 838.584C702.016 838.746 702.213 838.873 702.428 838.959C702.644 839.044 702.875 839.086 703.107 839.082C703.479 839.082 703.842 838.968 704.148 838.755C704.198 838.718 708.744 835.378 719.004 835.378C729.263 835.378 733.834 838.706 733.883 838.73C734.195 838.962 734.574 839.085 734.962 839.082C735.195 839.086 735.425 839.043 735.641 838.957C735.857 838.872 736.054 838.744 736.221 838.582C736.387 838.42 736.52 838.226 736.611 838.013C736.703 837.799 736.751 837.569 736.754 837.337C736.754 836.989 736.65 836.649 736.456 836.36C736.261 836.072 735.985 835.848 735.662 835.718Z" fill="white"/>
</svg>
