<svg width="36" height="36" viewBox="0 0 36 36" fill="none" xmlns="http://www.w3.org/2000/svg">
<path fill-rule="evenodd" clip-rule="evenodd" d="M26.0315 33.3484C23.0014 32.5892 16.7981 30.4489 11.1744 24.8252C5.55073 19.2016 3.41046 12.9983 2.65126 9.96816C2.21497 8.22679 3.00063 6.54642 4.33279 5.59486L7.82517 3.1003C9.86859 1.64073 12.7112 2.13601 14.1406 4.20067L16.3393 7.37655C17.2726 8.72466 16.9507 10.5724 15.6164 11.5254L13.8633 12.7776C14.1286 13.7926 14.9538 15.8768 17.5384 18.4613C20.1229 21.0458 22.2071 21.871 23.222 22.1363L24.4742 20.3831C25.4273 19.049 27.275 18.727 28.6231 19.6603L31.799 21.859C33.8636 23.2885 34.3589 26.131 32.8993 28.1744L30.4048 31.6669C29.4532 32.999 27.7729 33.7847 26.0315 33.3484ZM13.2957 22.7039C18.4099 27.818 24.0535 29.7601 26.7605 30.4384C27.1562 30.5374 27.6346 30.3836 27.9635 29.9231L30.4582 26.4307C30.9446 25.7497 30.7796 24.8021 30.0913 24.3256L26.9155 22.1269L25.5716 24.0083C25.0225 24.7772 24.0068 25.3802 22.8242 25.1251C21.3482 24.8066 18.6197 23.7853 15.4171 20.5826C12.2144 17.38 11.193 14.6515 10.8746 13.1755C10.6194 11.9929 11.2225 10.9772 11.9913 10.428L13.8727 9.08418L11.674 5.9083C11.1976 5.22007 10.25 5.05498 9.56889 5.54151L6.07651 8.03607C5.61595 8.36503 5.46219 8.84338 5.56132 9.23905C6.23959 11.9462 8.18164 17.5898 13.2957 22.7039Z" fill="#3F6873"/>
</svg>
