<svg width="92" height="92" viewBox="0 0 92 92" fill="none" xmlns="http://www.w3.org/2000/svg">
<path d="M67.936 38.252H47.0492C45.5792 38.2562 44.1708 38.8427 43.1322 39.8829C42.0937 40.9232 41.5095 42.3325 41.5076 43.8025V56.7616L32.4028 47.797C32.0226 47.4221 31.5101 47.212 30.9761 47.212C30.4422 47.212 29.9297 47.4221 29.5494 47.797L14.9139 62.233C14.6274 62.5157 14.4314 62.877 14.3505 63.2712C14.2697 63.6654 14.3077 64.0748 14.4597 64.4474C14.6117 64.8199 14.871 65.139 15.2045 65.3641C15.5381 65.5892 15.931 65.7102 16.3334 65.7118H18.6693V83.6159C18.6703 84.3835 18.9751 85.1195 19.5173 85.663C20.0594 86.2065 20.7947 86.5132 21.5623 86.516H70.5864C70.9677 86.5165 71.3453 86.4418 71.6977 86.2963C72.05 86.1508 72.3703 85.9373 72.6401 85.668C72.9099 85.3986 73.1241 85.0788 73.2702 84.7267C73.4164 84.3746 73.4917 83.9971 73.492 83.6159V43.8025C73.4906 42.3299 72.9046 40.9181 71.8628 39.8773C70.821 38.8366 69.4086 38.252 67.936 38.252ZM41.5076 83.4613H35.5294V77.458C35.5289 77.0032 35.3479 76.5672 35.0262 76.2457C34.7044 75.9243 34.2682 75.7437 33.8134 75.7437H29.4092C28.9546 75.7437 28.5186 75.9244 28.1971 76.2458C27.8756 76.5673 27.695 77.0033 27.695 77.458V83.4613H21.724V65.7118H41.5076V83.4613ZM70.4373 83.4613H61.417V77.458C61.4165 77.0032 61.2355 76.5672 60.9137 76.2457C60.592 75.9243 60.1558 75.7437 59.701 75.7437H55.2986C55.0734 75.7435 54.8503 75.7877 54.6421 75.8737C54.4339 75.9598 54.2447 76.086 54.0853 76.2452C53.926 76.4044 53.7995 76.5935 53.7133 76.8016C53.627 77.0096 53.5826 77.2327 53.5826 77.458V83.4613H44.5623V43.8025C44.5628 43.1407 44.8259 42.5061 45.2938 42.0382C45.7618 41.5702 46.3964 41.3071 47.0582 41.3066H67.936C68.2642 41.3062 68.5892 41.3704 68.8925 41.4956C69.1959 41.6208 69.4716 41.8045 69.7038 42.0363C69.9361 42.2681 70.1205 42.5434 70.2463 42.8464C70.3722 43.1495 70.4371 43.4744 70.4373 43.8025V83.4613Z" fill="white"/>
<path d="M54.6789 47.2031H50.5084C50.0251 47.2031 49.6333 47.5949 49.6333 48.0782V54.0097C49.6333 54.493 50.0251 54.8848 50.5084 54.8848H54.6789C55.1622 54.8848 55.554 54.493 55.554 54.0097V48.0782C55.554 47.5949 55.1622 47.2031 54.6789 47.2031Z" fill="white"/>
<path d="M64.4753 47.2031H60.3048C59.8215 47.2031 59.4297 47.5949 59.4297 48.0782V54.0097C59.4297 54.493 59.8215 54.8848 60.3048 54.8848H64.4753C64.9586 54.8848 65.3504 54.493 65.3504 54.0097V48.0782C65.3504 47.5949 64.9586 47.2031 64.4753 47.2031Z" fill="white"/>
<path d="M54.6789 58.0293H50.5084C50.0251 58.0293 49.6333 58.4211 49.6333 58.9044V64.8359C49.6333 65.3191 50.0251 65.7109 50.5084 65.7109H54.6789C55.1622 65.7109 55.554 65.3191 55.554 64.8359V58.9044C55.554 58.4211 55.1622 58.0293 54.6789 58.0293Z" fill="white"/>
<path d="M64.4753 58.0293H60.3048C59.8215 58.0293 59.4297 58.4211 59.4297 58.9044V64.8359C59.4297 65.3191 59.8215 65.7109 60.3048 65.7109H64.4753C64.9586 65.7109 65.3504 65.3191 65.3504 64.8359V58.9044C65.3504 58.4211 64.9586 58.0293 64.4753 58.0293Z" fill="white"/>
<path d="M44.7528 32.0109C44.9217 32.0109 48.1184 32.0109 48.5766 31.984C53.987 31.7432 58.2132 30.0775 61.1547 27.0246C65.4672 22.5594 65.8374 16.2919 65.6792 12.9533C65.6322 11.8818 65.1855 10.8669 64.4271 10.1085C63.6688 9.35019 62.6538 8.90346 61.5824 8.85641C58.242 8.69829 51.9763 9.07384 47.511 13.3791C47.0475 13.8283 46.6153 14.3086 46.2173 14.8166C45.8193 14.3086 45.387 13.8283 44.9235 13.3791C40.4583 9.06665 34.1908 8.70727 30.8522 8.85641C29.7808 8.90346 28.7658 9.35019 28.0075 10.1085C27.2491 10.8669 26.8024 11.8818 26.7553 12.9533C26.5972 16.2919 26.9728 22.5576 31.2781 27.0246C34.3849 30.2446 38.913 31.9193 44.7528 32.0109ZM49.7571 15.7079C52.9376 12.6424 57.4262 12.062 60.3695 12.062C60.7504 12.062 61.1062 12.071 61.4296 12.0872C61.6973 12.1012 61.9501 12.2145 62.1388 12.4048C62.3275 12.5952 62.4386 12.849 62.4503 13.1168C62.5832 15.9343 62.2921 21.2027 58.8278 24.7965C56.7236 26.9797 53.6923 28.2752 49.8057 28.667C49.8738 28.3643 49.9099 28.0554 49.9135 27.7452C49.9548 23.8855 49.3331 20.572 48.0609 17.8336C48.5366 17.0578 49.1063 16.3439 49.7571 15.7079ZM29.9879 13.1168C30.0018 12.8506 30.1138 12.599 30.3022 12.4105C30.4907 12.222 30.7423 12.11 31.0085 12.0962C33.8242 11.9614 39.0945 12.2543 42.6882 15.7169C45.114 18.0528 46.4437 21.5298 46.6557 26.0543C45.2409 23.9874 43.2238 22.4064 40.8788 21.5262L39.8815 24.5413C40.036 24.5952 43.035 25.6518 44.5642 28.7802C39.7449 28.6616 36.0596 27.3211 33.6176 24.7893C30.146 21.1884 29.8532 15.9253 29.9879 13.1168Z" fill="white"/>
</svg>
