<svg width="76" height="76" viewBox="0 0 76 76" fill="none" xmlns="http://www.w3.org/2000/svg">
<path fill-rule="evenodd" clip-rule="evenodd" d="M38.0006 8.70801C34.902 8.70801 32.2598 10.6873 31.2804 13.4578C30.8433 14.6945 29.4864 15.3427 28.2497 14.9056C27.013 14.4685 26.3648 13.1116 26.8019 11.8749C28.431 7.26588 32.8263 3.95801 38.0006 3.95801C43.1746 3.95801 47.5703 7.26588 49.1992 11.8749C49.6365 13.1116 48.9883 14.4685 47.7514 14.9056C46.5148 15.3427 45.1579 14.6945 44.7209 13.4578C43.7415 10.6873 41.0992 8.70801 38.0006 8.70801Z" fill="white"/>
<path d="M44.3335 39.583H31.6668C30.7924 39.583 30.0835 40.292 30.0835 41.1663V48.0111C30.0835 48.6584 30.4777 49.2407 31.0788 49.4811L33.2958 50.368C36.3158 51.5758 39.6845 51.5758 42.7046 50.368L44.9215 49.4811C45.5226 49.2407 45.9168 48.6584 45.9168 48.0111V41.1663C45.9168 40.292 45.2078 39.583 44.3335 39.583Z" fill="white"/>
<path d="M25.3674 48.6685L9.51855 43.9141C9.61384 53.7766 10.19 62.8596 13.6734 65.956C17.8471 69.6657 24.5647 69.6657 37.9997 69.6657C51.4346 69.6657 58.1523 69.6657 62.326 65.956C65.8093 62.8596 66.3854 53.7766 66.4807 43.9141L50.6325 48.6685C50.3912 50.9887 48.8845 53.0119 46.6855 53.8913L44.4682 54.7783C40.3161 56.4392 35.6839 56.4392 31.5316 54.7783L29.3145 53.8913C27.1155 53.0119 25.6089 50.9887 25.3674 48.6685Z" fill="white"/>
<path d="M24.0951 15.833H51.9053C59.664 15.833 63.5434 15.833 66.1626 17.9641C66.6661 18.3737 67.1262 18.8338 67.5357 19.3372C69.6668 21.9564 69.6668 25.8358 69.6668 33.5945C69.6668 35.5636 69.6668 36.5478 69.1893 37.3157C69.0965 37.4651 68.9911 37.6067 68.8745 37.7387C68.2763 38.4167 67.3333 38.6998 65.4476 39.2654L50.6668 43.6997V41.1663C50.6668 37.6684 47.8314 34.833 44.3335 34.833H31.6668C28.169 34.833 25.3335 37.6684 25.3335 41.1663V43.6997L10.5528 39.2654C8.66701 38.6998 7.72414 38.4167 7.12583 37.7387C7.00929 37.6067 6.90397 37.4651 6.81097 37.3157C6.3335 36.5478 6.3335 35.5636 6.3335 33.5945C6.3335 25.8358 6.3335 21.9564 8.4646 19.3372C8.87421 18.8338 9.33432 18.3737 9.8377 17.9641C12.4569 15.833 16.3363 15.833 24.0951 15.833Z" fill="white"/>
</svg>
