<svg width="74" height="74" viewBox="0 0 74 74" fill="none" xmlns="http://www.w3.org/2000/svg">
<path fill-rule="evenodd" clip-rule="evenodd" d="M27.6318 56.9452C18.5597 49.9922 6.1665 38.5065 6.1665 27.6468C6.1665 9.50475 23.1253 2.7314 36.9998 16.7459C50.8742 2.7314 67.8332 9.50475 67.8332 27.6467C67.8332 38.5068 55.44 49.9922 46.3679 56.9452C42.2609 60.0929 40.2074 61.6667 36.9998 61.6667C33.7922 61.6667 31.7387 60.0929 27.6318 56.9452ZM50.8748 19.2708C52.152 19.2708 53.1873 20.3062 53.1873 21.5833V25.4376H57.0415C58.3186 25.4376 59.354 26.4729 59.354 27.7501C59.354 29.0272 58.3186 30.0626 57.0415 30.0626H53.1873V33.9167C53.1873 35.1938 52.152 36.2292 50.8748 36.2292C49.5977 36.2292 48.5623 35.1938 48.5623 33.9167V30.0626H44.7082C43.4311 30.0626 42.3957 29.0272 42.3957 27.7501C42.3957 26.4729 43.4311 25.4376 44.7082 25.4376H48.5623V21.5833C48.5623 20.3062 49.5977 19.2708 50.8748 19.2708Z" fill="white"/>
</svg>
