<svg width="74" height="74" viewBox="0 0 74 74" fill="none" xmlns="http://www.w3.org/2000/svg">
<path d="M70.7657 34.7149C70.7282 34.5149 70.6693 34.3195 70.59 34.1322C70.5684 34.089 70.5715 34.0397 70.5499 33.9965L59.7582 13.9548C59.6377 13.7446 59.4906 13.5508 59.3204 13.3783C59.0364 13.0525 58.6863 12.7909 58.2935 12.6107C57.9007 12.4305 57.474 12.3358 57.0418 12.333H40.0835V6.16634C40.0835 5.34859 39.7586 4.56433 39.1804 3.9861C38.6022 3.40786 37.8179 3.08301 37.0002 3.08301C36.1824 3.08301 35.3982 3.40786 34.8199 3.9861C34.2417 4.56433 33.9168 5.34859 33.9168 6.16634V12.333H16.9585C16.5263 12.3358 16.0997 12.4305 15.7068 12.6107C15.314 12.7909 14.964 13.0525 14.6799 13.3783C14.5098 13.5508 14.3626 13.7446 14.2421 13.9548L3.45041 33.9965C3.42883 34.0397 3.43191 34.089 3.41033 34.1322C3.331 34.3185 3.27207 34.5128 3.23458 34.7118C3.17213 34.9125 3.1308 35.1192 3.11125 35.3285C3.11125 35.3748 3.0835 35.4148 3.0835 35.4642C3.0835 39.1441 4.54532 42.6732 7.14739 45.2753C9.74946 47.8773 13.2786 49.3392 16.9585 49.3392C20.6384 49.3392 24.1675 47.8773 26.7696 45.2753C29.3717 42.6732 30.8335 39.1441 30.8335 35.4642C30.8335 35.4148 30.8088 35.3748 30.8057 35.3285C30.7864 35.1192 30.7451 34.9125 30.6824 34.7118C30.6449 34.5118 30.586 34.3165 30.5067 34.1291C30.4851 34.0859 30.4882 34.0366 30.4666 33.9934L22.12 18.4997H33.9168V55.4997H24.6668C23.8491 55.4997 23.0648 55.8245 22.4866 56.4028C21.9083 56.981 21.5835 57.7653 21.5835 58.583C21.5835 59.4008 21.9083 60.185 22.4866 60.7632C23.0648 61.3415 23.8491 61.6663 24.6668 61.6663H49.3335C50.1512 61.6663 50.9355 61.3415 51.5137 60.7632C52.092 60.185 52.4168 59.4008 52.4168 58.583C52.4168 57.7653 52.092 56.981 51.5137 56.4028C50.9355 55.8245 50.1512 55.4997 49.3335 55.4997H40.0835V18.4997H51.8803L43.5337 33.9965C43.5122 34.0397 43.5152 34.089 43.4937 34.1322C43.4143 34.3185 43.3554 34.5128 43.3179 34.7118C43.2555 34.9125 43.2141 35.1192 43.1946 35.3285C43.1946 35.3748 43.1668 35.4148 43.1668 35.4642C43.1668 39.1441 44.6287 42.6732 47.2307 45.2753C49.8328 47.8773 53.3619 49.3392 57.0418 49.3392C60.7217 49.3392 64.2509 47.8773 66.8529 45.2753C69.455 42.6732 70.9168 39.1441 70.9168 35.4642C70.9168 35.4148 70.8922 35.3748 70.8891 35.3285C70.8695 35.1202 70.8282 34.9146 70.7657 34.7149ZM16.9585 43.1663C15.4588 43.1662 13.9917 42.7285 12.737 41.907C11.4823 41.0855 10.4945 39.9158 9.89458 38.5413H24.0224C23.4225 39.9158 22.4347 41.0855 21.18 41.907C19.9253 42.7285 18.4582 43.1662 16.9585 43.1663ZM22.5887 32.3747H11.3283L16.9585 21.9191L22.5887 32.3747ZM57.0418 21.9191L62.672 32.3747H51.4117L57.0418 21.9191ZM57.0418 43.1663C55.5421 43.1662 54.075 42.7285 52.8203 41.907C51.5656 41.0855 50.5778 39.9158 49.9779 38.5413H64.1057C63.5059 39.9158 62.518 41.0855 61.2633 41.907C60.0086 42.7285 58.5415 43.1662 57.0418 43.1663ZM64.7502 67.833C64.7502 68.6507 64.4253 69.435 63.8471 70.0133C63.2688 70.5915 62.4846 70.9163 61.6668 70.9163H12.3335C11.5157 70.9163 10.7315 70.5915 10.1532 70.0133C9.57501 69.435 9.25016 68.6507 9.25016 67.833C9.25016 67.0153 9.57501 66.231 10.1532 65.6528C10.7315 65.0745 11.5157 64.7497 12.3335 64.7497H61.6668C62.4846 64.7497 63.2688 65.0745 63.8471 65.6528C64.4253 66.231 64.7502 67.0153 64.7502 67.833Z" fill="white"/>
</svg>
