<svg width="56" height="56" viewBox="0 0 56 56" fill="none" xmlns="http://www.w3.org/2000/svg">
<path d="M7 21H49M16.3333 7V11.6667M39.6667 7V11.6667M14 30.3333H18.6667M14 39.6667H18.6667M25.6667 30.3333H30.3333M25.6667 39.6667H30.3333M37.3333 30.3333H42M37.3333 39.6667H42M14.4667 49H41.5333C44.1469 49 45.4538 49 46.452 48.4913C47.33 48.044 48.044 47.33 48.4913 46.452C49 45.4538 49 44.1469 49 41.5333V19.1333C49 16.5197 49 15.213 48.4913 14.2147C48.044 13.3366 47.33 12.6227 46.452 12.1753C45.4538 11.6667 44.1469 11.6667 41.5333 11.6667H14.4667C11.8531 11.6667 10.5463 11.6667 9.54805 12.1753C8.66994 12.6227 7.95604 13.3366 7.50864 14.2147C7 15.213 7 16.5197 7 19.1333V41.5333C7 44.1469 7 45.4538 7.50864 46.452C7.95604 47.33 8.66994 48.044 9.54805 48.4913C10.5463 49 11.8531 49 14.4667 49Z" stroke="white" stroke-width="3" stroke-linecap="round" stroke-linejoin="round"/>
</svg>
