<svg width="48" height="48" viewBox="0 0 48 48" fill="none" xmlns="http://www.w3.org/2000/svg">
<path d="M24 4L10.5 9.75V21.625C10.5 30.5377 16.2569 38.9255 24 42C31.7431 38.9255 37.5 30.5377 37.5 21.625V9.75L24 4Z" stroke="white" stroke-width="3" stroke-linecap="round" stroke-linejoin="round"/>
<path d="M24 23.5C26.7614 23.5 29 21.2614 29 18.5C29 15.7386 26.7614 13.5 24 13.5C21.2386 13.5 19 15.7386 19 18.5C19 21.2614 21.2386 23.5 24 23.5Z" fill="white"/>
<path d="M17.5 32.5C18.9255 29.7409 21.1961 28 24 28C26.8039 28 29.0745 29.7409 30.5 32.5" stroke="white" stroke-width="3" stroke-linecap="round" stroke-linejoin="round"/>
</svg>
