<svg xmlns="http://www.w3.org/2000/svg" viewBox="0 0 24 24" fill="#000">
  <path d="M12 12a3.25 3.25 0 1 0 0-6.5 3.25 3.25 0 0 0 0 6.5ZM6.3 13.5A2.8 2.8 0 1 0 6.3 8a2.8 2.8 0 0 0 0 5.5Zm11.4 0A2.8 2.8 0 1 0 17.7 8a2.8 2.8 0 0 0 0 5.5ZM12 13.5c-3.1 0-5.6 1.7-5.6 3.8v.2c0 .8.7 1.5 1.5 1.5h8.2c.8 0 1.5-.7 1.5-1.5v-.2c0-2.1-2.5-3.8-5.6-3.8Zm-5.7 1.2c-2.2 0-4.1 1.2-4.1 2.8 0 .8.7 1.5 1.5 1.5h1.6v-1.7c0-.8.3-1.6 1-2.3Zm11.4 0c.7.7 1 1.5 1 2.3V19h1.6c.8 0 1.5-.7 1.5-1.5 0-1.6-1.9-2.8-4.1-2.8Z"/>
</svg>
