<svg width="30" height="30" viewBox="0 0 30 30" fill="none" xmlns="http://www.w3.org/2000/svg">
<path d="M1.5 10.25H27.75M21.9167 16.0854L7.33333 16.0833M12.1944 21.9174L7.33333 21.9167M7.33333 1.5V4.41667M21.9167 1.5V4.41667M6.16667 27.75H23.0833C24.7168 27.75 25.5336 27.75 26.1575 27.4321C26.7063 27.1525 27.1525 26.7063 27.4321 26.1575C27.75 25.5336 27.75 24.7168 27.75 23.0833V9.08333C27.75 7.44984 27.75 6.6331 27.4321 6.0092C27.1525 5.46038 26.7063 5.01419 26.1575 4.73457C25.5336 4.41667 24.7168 4.41667 23.0833 4.41667H6.16667C4.53319 4.41667 3.71643 4.41667 3.09253 4.73457C2.54371 5.01419 2.09752 5.46038 1.8179 6.0092C1.5 6.6331 1.5 7.44984 1.5 9.08333V23.0833C1.5 24.7168 1.5 25.5336 1.8179 26.1575C2.09752 26.7063 2.54371 27.1525 3.09253 27.4321C3.71643 27.75 4.53317 27.75 6.16667 27.75Z" stroke="#157C8D" stroke-width="3" stroke-linecap="round" stroke-linejoin="round"/>
</svg>
