<svg width="26" height="31" viewBox="0 0 26 31" fill="none" xmlns="http://www.w3.org/2000/svg">
<path d="M1.5 7.74012C1.5 5.55605 1.5 4.46403 1.77854 3.62984C2.02354 2.89605 2.41449 2.29947 2.89536 1.9256C3.44202 1.50055 4.15765 1.50055 5.58889 1.50055H10.0286C10.6536 1.50055 10.9662 1.50055 11.2603 1.6083C11.521 1.70382 11.7703 1.86139 11.999 2.07521C12.2568 2.31637 12.4779 2.6536 12.9199 3.32808L13.0801 3.57275C13.5221 4.24723 13.7432 4.58445 14.001 4.82561C14.2297 5.03944 14.479 5.197 14.7397 5.29253C15.0338 5.40028 15.3464 5.40028 15.9715 5.40028H20.4111C21.8423 5.40028 22.558 5.40028 23.1047 5.82533C23.5855 6.1992 23.9765 6.79578 24.2214 7.52957C24.5 8.36376 24.5 9.4558 24.5 11.6398V22.5591C24.5 24.7431 24.5 25.8353 24.2214 26.6694C23.9765 27.4031 23.5855 27.9998 23.1047 28.3736C22.558 28.7987 21.8423 28.7987 20.4111 28.7987H5.58889C4.15764 28.7987 3.44202 28.7987 2.89536 28.3736C2.41449 27.9998 2.02354 27.4031 1.77854 26.6694C1.5 25.8353 1.5 24.7431 1.5 22.5591V7.74012Z" stroke="#676767" stroke-width="3" stroke-linecap="round" stroke-linejoin="round"/>
</svg>
