<svg width="37" height="35" viewBox="0 0 37 35" fill="none" xmlns="http://www.w3.org/2000/svg">
<path d="M3.58748 23.8253C3.58748 22.9074 2.78438 22.1631 1.79374 22.1631C0.803093 22.1631 0 22.9074 0 23.8253H3.58748ZM36.2335 23.8253C36.2335 22.9074 35.4304 22.1631 34.4398 22.1631C33.4492 22.1631 32.646 22.9074 32.646 23.8253H36.2335ZM16.7023 25.0193C16.0932 25.7431 16.2324 26.7877 17.0135 27.3524C17.7946 27.9169 18.9218 27.7879 19.5312 27.064L16.7023 25.0193ZM28.8586 15.9825C29.4678 15.2586 29.3286 14.2141 28.5475 13.6494C27.7664 13.0849 26.6392 13.2139 26.0298 13.9377L28.8586 15.9825ZM16.7023 27.064C17.3117 27.7879 18.4389 27.9169 19.22 27.3524C20.0011 26.7877 20.1403 25.7431 19.5312 25.0193L16.7023 27.064ZM10.2037 13.9377C9.5944 13.2139 8.46723 13.0849 7.68612 13.6494C6.90498 14.2141 6.76567 15.2586 7.37494 15.9825L10.2037 13.9377ZM16.323 26.0417C16.323 26.9597 17.1261 27.7039 18.1168 27.7039C19.1074 27.7039 19.9105 26.9597 19.9105 26.0417H16.323ZM19.9105 1.66223C19.9105 0.744215 19.1074 0 18.1168 0C17.1261 0 16.323 0.744215 16.323 1.66223H19.9105ZM0 23.8253V26.0417H3.58748V23.8253H0ZM0 26.0417C0 30.592 3.89258 34.3528 8.78932 34.3528V31.0284C5.95897 31.0284 3.58748 28.8358 3.58748 26.0417H0ZM8.78932 34.3528H27.4442V31.0284H8.78932V34.3528ZM27.4442 34.3528C32.3409 34.3528 36.2335 30.592 36.2335 26.0417H32.646C32.646 28.8358 30.2745 31.0284 27.4442 31.0284V34.3528ZM36.2335 26.0417V23.8253H32.646V26.0417H36.2335ZM19.5312 27.064L28.8586 15.9825L26.0298 13.9377L16.7023 25.0193L19.5312 27.064ZM19.5312 25.0193L10.2037 13.9377L7.37494 15.9825L16.7023 27.064L19.5312 25.0193ZM19.9105 26.0417V1.66223H16.323V26.0417H19.9105Z" fill="white"/>
</svg>
