<svg width="29" height="48" viewBox="0 0 29 48" fill="none" xmlns="http://www.w3.org/2000/svg">
<path d="M14.5001 28.5408L13.3866 27.4809C13.6521 27.0507 14.0636 26.7987 14.5001 26.7987C14.9364 26.7987 15.3479 27.0507 15.6136 27.4809L14.5001 28.5408ZM20.32 32.0925L20.3157 30.3503C20.3256 30.3503 20.3354 30.3503 20.3452 30.3506L20.32 32.0925ZM21.1488 14.3854L21.0113 16.1191C20.5611 16.0641 20.1598 15.7429 19.9336 15.2564C19.7075 14.7699 19.6841 14.1778 19.8708 13.6662L21.1488 14.3854ZM7.85133 14.3854L9.12926 13.6662C9.31597 14.1778 9.29258 14.7699 9.06641 15.2564C8.84023 15.7429 8.43894 16.0641 7.98865 16.1191L7.85133 14.3854ZM8.68009 32.0925L8.65483 30.3506C8.66456 30.3503 8.67448 30.3503 8.68439 30.3503L8.68009 32.0925ZM13.097 28.5408C13.097 27.5787 13.725 26.7987 14.5001 26.7987C15.275 26.7987 15.9032 27.5787 15.9032 28.5408H13.097ZM15.9032 46.0296C15.9032 46.9917 15.275 47.7717 14.5001 47.7717C13.725 47.7717 13.097 46.9917 13.097 46.0296H15.9032ZM15.9032 28.5408C15.9032 29.503 15.275 30.283 14.5001 30.283C13.725 30.283 13.097 29.503 13.097 28.5408H15.9032ZM13.097 23.9277C13.097 22.9655 13.725 22.1855 14.5001 22.1855C15.275 22.1855 15.9032 22.9655 15.9032 23.9277H13.097ZM13.097 16.994C13.097 16.0318 13.725 15.2518 14.5001 15.2518C15.275 15.2518 15.9032 16.0318 15.9032 16.994H13.097ZM15.9032 19.3168C15.9032 20.2789 15.275 21.0589 14.5001 21.0589C13.725 21.0589 13.097 20.2789 13.097 19.3168H15.9032ZM13.6582 20.7105C13.0383 20.1332 12.9125 19.0412 13.3776 18.2715C13.8425 17.5018 14.722 17.3458 15.3419 17.9231L13.6582 20.7105ZM19.0834 21.4074C19.7034 21.9846 19.829 23.0766 19.3641 23.8464C18.8991 24.6161 18.0196 24.772 17.3998 24.1948L19.0834 21.4074ZM13.097 19.3168C13.097 18.3547 13.725 17.5747 14.5001 17.5747C15.275 17.5747 15.9032 18.3547 15.9032 19.3168H13.097ZM15.9032 23.9277C15.9032 24.8898 15.275 25.6698 14.5001 25.6698C13.725 25.6698 13.097 24.8898 13.097 23.9277H15.9032ZM13.9722 22.3135C14.6902 21.9516 15.5086 22.3809 15.8001 23.2724C16.0916 24.1639 15.7458 25.1799 15.0278 25.5418L13.9722 22.3135ZM10.3509 27.8995C9.63288 28.2614 8.8146 27.8321 8.52313 26.9406C8.23148 26.0491 8.5772 25.0331 9.2952 24.6712L10.3509 27.8995ZM15.6136 27.4809C16.7344 29.296 18.4735 30.3573 20.3157 30.3503L20.3243 33.8346C17.6063 33.8451 15.0404 32.279 13.3866 29.6007L15.6136 27.4809ZM20.3452 30.3506C23.4281 30.4193 26.005 27.4542 26.1839 23.6322L28.9854 23.8343C28.7191 29.5232 24.8835 33.9366 20.2948 33.8344L20.3452 30.3506ZM26.1839 23.6322C26.3628 19.8101 24.0799 16.4942 21.0113 16.1191L21.2862 12.6516C25.8536 13.2099 29.2516 18.1454 28.9854 23.8343L26.1839 23.6322ZM19.8708 13.6662C20.2021 12.7587 20.3731 11.7737 20.3724 10.7773L23.1786 10.7741C23.1797 12.2677 22.9233 13.7442 22.4267 15.1046L19.8708 13.6662ZM20.3724 10.7773C20.3724 6.75033 17.7433 3.48427 14.5001 3.48427V0C19.2931 0 23.1786 4.82286 23.1786 10.7741L20.3724 10.7773ZM14.5001 3.48427C11.2567 3.48427 8.62771 6.74876 8.62771 10.7757H5.82153C5.82153 4.82444 9.70696 0 14.5001 0V3.48427ZM8.62771 10.7757C8.62696 11.7721 8.79795 12.7587 9.12926 13.6662L6.5734 15.1046C6.07671 13.7442 5.82041 12.2693 5.82153 10.7757H8.62771ZM7.98865 16.1191C4.92019 16.4942 2.63728 19.8101 2.81612 23.6322L0.0146272 23.8343C-0.251585 18.1454 3.1465 13.2099 7.71383 12.6516L7.98865 16.1191ZM2.81612 23.6322C2.99497 27.4542 5.57197 30.4193 8.65483 30.3506L8.70516 33.8344C4.1165 33.9366 0.281027 29.5232 0.0146272 23.8343L2.81612 23.6322ZM8.68439 30.3503C10.5266 30.3573 12.2656 29.296 13.3866 27.4809L15.6136 29.6007C13.9598 32.279 11.3937 33.8451 8.67579 33.8346L8.68439 30.3503ZM15.9032 28.5408V46.0296H13.097V28.5408H15.9032ZM13.097 28.5408V23.9277H15.9032V28.5408H13.097ZM15.9032 16.994V19.3168H13.097V16.994H15.9032ZM15.3419 17.9231L19.0834 21.4074L17.3998 24.1948L13.6582 20.7105L15.3419 17.9231ZM15.9032 19.3168V23.9277H13.097V19.3168H15.9032ZM15.0278 25.5418L10.3509 27.8995L9.2952 24.6712L13.9722 22.3135L15.0278 25.5418Z" fill="#1B4C54"/>
</svg>
