<svg width="35" height="35" viewBox="0 0 35 35" fill="none" xmlns="http://www.w3.org/2000/svg">
<path d="M21.875 23.3333C21.4614 21.6692 19.6598 20.4167 17.5 20.4167C15.3402 20.4167 13.5386 21.6692 13.125 23.3333M16.0417 4.375H18.9583M17.5 14.5833H17.5146M11.6667 7.29167H9.04167C7.40819 7.29167 6.59143 7.29167 5.96753 7.60957C5.41871 7.88919 4.97252 8.33538 4.6929 8.8842C4.375 9.5081 4.375 10.3249 4.375 11.9583V24.5C4.375 26.1335 4.375 26.9503 4.6929 27.5742C4.97252 28.1229 5.41871 28.5692 5.96753 28.8487C6.59143 29.1667 7.40819 29.1667 9.04167 29.1667H25.9583C27.5918 29.1667 28.4086 29.1667 29.0325 28.8487C29.5813 28.5692 30.0275 28.1229 30.3071 27.5742C30.625 26.9503 30.625 26.1335 30.625 24.5V11.9583C30.625 10.3248 30.625 9.5081 30.3071 8.8842C30.0275 8.33538 29.5813 7.88919 29.0325 7.60957C28.4086 7.29167 27.5918 7.29167 25.9583 7.29167H23.3333M18.9583 14.5833C18.9583 15.3888 18.3054 16.0417 17.5 16.0417C16.6946 16.0417 16.0417 15.3888 16.0417 14.5833C16.0417 13.7779 16.6946 13.125 17.5 13.125C18.3054 13.125 18.9583 13.7779 18.9583 14.5833Z" stroke="#157C8D" stroke-width="3" stroke-linecap="round" stroke-linejoin="round"/>
</svg>
