<svg width="43" height="43" viewBox="0 0 43 43" fill="none" xmlns="http://www.w3.org/2000/svg">
<path d="M8.96094 18.9431V32.2526C8.96094 34.2316 10.5653 35.8359 12.5443 35.8359H32.2526C34.2316 35.8359 35.8359 34.2316 35.8359 32.2526V12.5443C35.8359 10.5653 34.2316 8.96094 32.2526 8.96094H18.9431" stroke="#676767" stroke-width="3" stroke-linecap="round" stroke-linejoin="round"/>
<path fill-rule="evenodd" clip-rule="evenodd" d="M10.7474 12.5443C9.75789 12.5443 8.95573 11.7421 8.95573 10.7526C8.95573 9.76309 9.75789 8.96094 10.7474 8.96094C11.7369 8.96094 12.5391 9.76309 12.5391 10.7526C12.5391 11.7421 11.7369 12.5443 10.7474 12.5443Z" stroke="#676767" stroke-width="3" stroke-linecap="round"/>
<path d="M28.6641 26.875L23.2891 19.7083L19.7043 23.2917L14.3307 16.125" stroke="#676767" stroke-width="3" stroke-linecap="round" stroke-linejoin="round"/>
</svg>
