<svg width="38" height="38" viewBox="0 0 38 38" fill="none" xmlns="http://www.w3.org/2000/svg">
<path fill-rule="evenodd" clip-rule="evenodd" d="M21.8541 8.44446C21.8541 5.52962 24.2278 3.16669 27.1559 3.16669C30.0839 3.16669 32.4577 5.52962 32.4577 8.44446C32.4577 11.3593 30.0839 13.7222 27.1559 13.7222C25.6774 13.7222 24.3412 13.1195 23.3806 12.1497L16.0412 17.1467C16.109 17.484 16.1446 17.8323 16.1446 18.1881C16.1446 18.8927 16.0053 19.5662 15.7529 20.1818L23.8005 25.4692C24.7139 24.7255 25.8826 24.2777 27.1559 24.2777C30.0839 24.2777 32.4577 26.6407 32.4577 29.5556C32.4577 32.4704 30.0839 34.8334 27.1559 34.8334C24.2278 34.8334 21.8541 32.4704 21.8541 29.5556C21.8541 28.7921 22.0175 28.0654 22.3112 27.4093L14.3286 22.1646C13.3975 22.9739 12.1777 23.4658 10.8428 23.4658C7.9147 23.4658 5.54102 21.1028 5.54102 18.1881C5.54102 15.2732 7.9147 12.9103 10.8428 12.9103C12.5265 12.9103 14.0254 13.6915 14.9958 14.9074L22.1089 10.0644C21.9434 9.5532 21.8541 9.00855 21.8541 8.44446Z" fill="white"/>
</svg>
