<svg width="38" height="42" viewBox="0 0 38 42" fill="none" xmlns="http://www.w3.org/2000/svg">
<path fill-rule="evenodd" clip-rule="evenodd" d="M14.4256 2.52057C13.9629 2.95638 13.7315 3.17432 13.4844 3.35736C12.918 3.77694 12.2819 4.06815 11.613 4.21412C11.3212 4.27781 11.0182 4.30452 10.4122 4.35797C8.88953 4.49228 8.1282 4.55942 7.49305 4.80739C6.02397 5.3809 4.86843 6.65808 4.34954 8.28179C4.12519 8.9838 4.06445 9.82527 3.94292 11.5082C3.89457 12.178 3.8704 12.5129 3.81277 12.8354C3.6807 13.5748 3.41723 14.2778 3.03761 14.9038C2.87201 15.1769 2.67484 15.4326 2.28052 15.944C1.28978 17.229 0.794395 17.8714 0.503923 18.5432C-0.167974 20.097 -0.167974 21.903 0.503923 23.4568C0.794414 24.1286 1.28978 24.771 2.28052 26.056C2.67479 26.5673 2.87201 26.8231 3.03761 27.0961C3.41723 27.7221 3.6807 28.4252 3.81277 29.1646C3.8704 29.4872 3.89457 29.8221 3.94292 30.4918C4.06445 32.1747 4.12519 33.0162 4.34954 33.7182C4.86843 35.3419 6.02397 36.6192 7.49305 37.1927C8.1282 37.4405 8.88953 37.5077 10.4122 37.6421C11.0182 37.6954 11.3212 37.7223 11.613 37.7859C12.2819 37.9319 12.918 38.2231 13.4844 38.6427C13.7315 38.8256 13.9629 39.0436 14.4256 39.4794C15.5882 40.5745 16.1694 41.122 16.7772 41.4431C18.183 42.1856 19.817 42.1856 21.2228 41.4431C21.8306 41.122 22.4118 40.5745 23.5744 39.4794C24.0371 39.0436 24.2685 38.8256 24.5155 38.6427C25.0819 38.2231 25.718 37.9319 26.387 37.7859C26.6789 37.7223 26.9819 37.6954 27.5878 37.6421C29.1105 37.5077 29.8718 37.4405 30.507 37.1927C31.976 36.6192 33.1316 35.3419 33.6505 33.7182C33.8747 33.0162 33.9355 32.1747 34.0571 30.4918C34.1054 29.8221 34.1297 29.4872 34.1873 29.1646C34.3193 28.4252 34.5828 27.7221 34.9625 27.0961C35.128 26.8231 35.3252 26.5673 35.7194 26.056C36.7103 24.771 37.2056 24.1286 37.4961 23.4568C38.168 21.903 38.168 20.097 37.4961 18.5432C37.2056 17.8714 36.7103 17.229 35.7194 15.944C35.3252 15.4326 35.128 15.1769 34.9625 14.9038C34.5828 14.2778 34.3193 13.5748 34.1873 12.8354C34.1297 12.5129 34.1054 12.178 34.0571 11.5082C33.9355 9.82527 33.8747 8.9838 33.6505 8.28179C33.1316 6.65808 31.976 5.3809 30.507 4.80739C29.8718 4.55942 29.1105 4.49228 27.5878 4.35797C26.9819 4.30452 26.6789 4.27781 26.387 4.21412C25.718 4.06815 25.0819 3.77694 24.5155 3.35736C24.2685 3.17432 24.0371 2.95641 23.5744 2.52057C22.4118 1.42555 21.8306 0.878036 21.2228 0.556967C19.817 -0.185656 18.183 -0.185656 16.7772 0.556967C16.1694 0.878015 15.5882 1.42555 14.4256 2.52057ZM27.3097 16.5126C27.9135 15.8451 27.9135 14.763 27.3097 14.0955C26.7058 13.4281 25.7266 13.4281 25.1228 14.0955L15.9074 24.281L12.8772 20.932C12.2733 20.2646 11.2942 20.2646 10.6903 20.932C10.0865 21.5993 10.0865 22.6815 10.6903 23.3491L14.8139 27.9067C15.4177 28.5741 16.3968 28.5741 17.0008 27.9067L27.3097 16.5126Z" fill="#24C349"/>
</svg>
