<svg width="87" height="87" viewBox="0 0 87 87" fill="none" xmlns="http://www.w3.org/2000/svg">
<path fill-rule="evenodd" clip-rule="evenodd" d="M32.9004 5.20118C31.8452 6.10048 31.3175 6.55019 30.7539 6.92789C29.4622 7.79369 28.0114 8.39459 26.4858 8.6958C25.8202 8.82723 25.1291 8.88235 23.747 8.99263C20.2744 9.26979 18.538 9.40833 17.0894 9.92001C13.7389 11.1034 11.1034 13.7389 9.92001 17.0894C9.40833 18.538 9.26979 20.2744 8.99263 23.747C8.88235 25.1291 8.82723 25.8202 8.6958 26.4858C8.39459 28.0114 7.79369 29.4622 6.92789 30.7539C6.55019 31.3175 6.10052 31.8451 5.20118 32.9004C2.94161 35.552 1.81178 36.8776 1.1493 38.2638C-0.383099 41.47 -0.383099 45.1967 1.1493 48.4029C1.81182 49.7892 2.94161 51.1147 5.20118 53.7663C6.10039 54.8215 6.55019 55.3493 6.92789 55.9126C7.79369 57.2044 8.39459 58.6552 8.6958 60.1809C8.82723 60.8465 8.88235 61.5377 8.99263 62.9196C9.26979 66.3923 9.40833 68.1287 9.92001 69.5773C11.1034 72.9279 13.7389 75.5634 17.0894 76.7468C18.538 77.2582 20.2744 77.3968 23.747 77.6742C25.1291 77.7842 25.8202 77.8397 26.4858 77.971C28.0114 78.2722 29.4622 78.8732 30.7539 79.739C31.3175 80.1164 31.8451 80.5662 32.9004 81.4654C35.552 83.7252 36.8776 84.8549 38.2638 85.5175C41.47 87.0498 45.1967 87.0498 48.4029 85.5175C49.7892 84.8549 51.1147 83.7252 53.7663 81.4654C54.8215 80.5662 55.3493 80.1164 55.9126 79.739C57.2044 78.8732 58.6552 78.2722 60.1809 77.971C60.8465 77.8397 61.5377 77.7842 62.9196 77.6742C66.3923 77.3968 68.1287 77.2582 69.5773 76.7468C72.9279 75.5634 75.5634 72.9279 76.7468 69.5773C77.2582 68.1287 77.3968 66.3923 77.6742 62.9196C77.7842 61.5377 77.8397 60.8465 77.971 60.1809C78.2722 58.6552 78.8732 57.2044 79.739 55.9126C80.1164 55.3493 80.5662 54.8215 81.4654 53.7663C83.7252 51.1147 84.8549 49.7892 85.5175 48.4029C87.0498 45.1967 87.0498 41.47 85.5175 38.2638C84.8549 36.8776 83.7252 35.552 81.4654 32.9004C80.5662 31.8451 80.1164 31.3175 79.739 30.7539C78.8732 29.4622 78.2722 28.0114 77.971 26.4858C77.8397 25.8202 77.7842 25.1291 77.6742 23.747C77.3968 20.2744 77.2582 18.538 76.7468 17.0894C75.5634 13.7389 72.9279 11.1034 69.5773 9.92001C68.1287 9.40833 66.3923 9.26979 62.9196 8.99263C61.5377 8.88235 60.8465 8.82723 60.1809 8.6958C58.6552 8.39459 57.2044 7.79369 55.9126 6.92789C55.3493 6.55019 54.8215 6.10052 53.7663 5.20118C51.1147 2.94161 49.7892 1.81182 48.4029 1.1493C45.1967 -0.383099 41.47 -0.383099 38.2638 1.1493C36.8776 1.81178 35.552 2.94161 32.9004 5.20118ZM62.2852 34.0736C63.6623 32.6963 63.6623 30.4633 62.2852 29.086C60.9081 27.7088 58.6747 27.7088 57.2975 29.086L36.28 50.1038L29.369 43.193C27.9917 41.8158 25.7587 41.8158 24.3815 43.193C23.0042 44.5701 23.0042 46.8031 24.3815 48.1806L33.7861 57.5853C35.1633 58.9624 37.3962 58.9624 38.7738 57.5853L62.2852 34.0736Z" fill="#24ACC3"/>
<path d="M62.2852 34.0736C63.6623 32.6963 63.6623 30.4633 62.2852 29.086C60.9081 27.7088 58.6747 27.7088 57.2975 29.086L36.28 50.1038L29.369 43.193C27.9917 41.8158 25.7587 41.8158 24.3815 43.193C23.0042 44.5701 23.0042 46.8031 24.3815 48.1806L33.7861 57.5853C35.1633 58.9624 37.3962 58.9624 38.7738 57.5853L62.2852 34.0736Z" fill="#FFFFFF"/>
</svg>
