<svg width="32" height="32" viewBox="0 0 32 32" fill="none" xmlns="http://www.w3.org/2000/svg">
<g clip-path="url(#clip0_3534_186)">
<path d="M4 0C2.89844 0 2 0.898438 2 2V18C2 23 5.63281 26.4922 8.89062 28.6641C12.1484 30.8359 15.3672 31.8984 15.3672 31.8984C15.7812 32.0391 16.2188 32.0391 16.6328 31.8984C16.6328 31.8984 19.8516 30.8359 23.1094 28.6641C26.3672 26.4922 30 23 30 18V2C30 0.898438 29.1016 0 28 0H4ZM6 4H26V18C26 21 23.6328 23.5078 20.8906 25.3359C18.4609 26.9531 16.5312 27.5938 16 27.7891C15.4688 27.5938 13.5391 26.9531 11.1094 25.3359C8.36719 23.5078 6 21 6 18V4ZM8 6V18C8 20 9.73438 22.0156 12.2188 23.6719C14.0859 24.9141 15.1641 25.2422 16 25.5703V6H8Z" fill="#623435"/>
</g>
<defs>
<clipPath id="clip0_3534_186">
<rect width="32" height="32" fill="white"/>
</clipPath>
</defs>
</svg>
