<svg width="42" height="42" viewBox="0 0 42 42" fill="none" xmlns="http://www.w3.org/2000/svg">
<path d="M21 5.43565L20.1119 6.40196C20.6139 6.86356 21.386 6.86356 21.8881 6.40196L21 5.43565ZM18.5351 14.3431C17.3273 13.4626 16.039 12.3918 15.0655 11.2634C14.0604 10.0983 13.5625 9.06896 13.5625 8.25072H10.9375C10.9375 10.0314 11.9498 11.6704 13.0778 12.978C14.2375 14.3222 15.7051 15.5285 16.9889 16.4643L18.5351 14.3431ZM13.5625 8.25072C13.5625 6.3981 14.4725 5.34143 15.5671 4.97307C16.7082 4.58905 18.4098 4.8375 20.1119 6.40196L21.8881 4.46935C19.6528 2.41468 16.9794 1.72812 14.7299 2.48517C12.4338 3.25786 10.9375 5.41829 10.9375 8.25072H13.5625ZM25.0112 16.4643C26.295 15.5285 27.7625 14.3223 28.9222 12.978C30.0503 11.6704 31.0625 10.0314 31.0625 8.2507H28.4375C28.4375 9.06898 27.9396 10.0983 26.9346 11.2634C25.9611 12.3919 24.6727 13.4626 23.4649 14.3431L25.0112 16.4643ZM31.0625 8.2507C31.0625 5.41827 29.5662 3.25786 27.2701 2.48517C25.0206 1.72812 22.3471 2.41468 20.1119 4.46935L21.8881 6.40196C23.5902 4.8375 25.2919 4.58905 26.4329 4.97305C27.5275 5.34141 28.4375 6.3981 28.4375 8.2507H31.0625ZM16.9889 16.4643C18.3102 17.4276 19.3581 18.2454 21 18.2454V15.6204C20.3612 15.6204 20.0107 15.4187 18.5351 14.3431L16.9889 16.4643ZM23.4649 14.3431C21.9893 15.4187 21.6387 15.6204 21 15.6204V18.2454C22.6418 18.2454 23.6897 17.4276 25.0112 16.4643L23.4649 14.3431Z" fill="#623435"/>
<path d="M8.75 35.6797H12.7049C14.4739 35.6797 16.2619 35.864 17.9835 36.2187C21.0291 36.8461 24.2354 36.9221 27.3121 36.4242C28.8291 36.1785 30.3205 35.8031 31.6706 35.1514C32.8893 34.5632 34.3821 33.7341 35.3848 32.8054C36.3862 31.878 37.429 30.3603 38.1691 29.1738C38.8038 28.1565 38.4968 26.9084 37.4929 26.1503C36.3778 25.3084 34.723 25.3085 33.608 26.1508L30.4454 28.5397C29.2197 29.4657 27.881 30.3179 26.286 30.5724C26.0942 30.603 25.8933 30.6308 25.6837 30.6551M25.6837 30.6551C25.6205 30.6625 25.5566 30.6695 25.4919 30.6761M25.6837 30.6551C25.9388 30.6005 26.1921 30.443 26.4299 30.2357C27.5555 29.2532 27.6265 27.5975 26.6499 26.5005C26.4234 26.246 26.1581 26.0337 25.8634 25.8579C20.968 22.938 13.3515 25.1619 8.75 28.4251M25.6837 30.6551C25.6198 30.6688 25.5558 30.6761 25.4919 30.6761M25.4919 30.6761C24.5759 30.7701 23.5046 30.7944 22.3156 30.6821" stroke="#623435" stroke-width="3" stroke-linecap="round"/>
<path d="M8.75 27.125C8.75 25.6753 7.57475 24.5 6.125 24.5C4.67525 24.5 3.5 25.6753 3.5 27.125V35.875C3.5 37.3247 4.67525 38.5 6.125 38.5C7.57475 38.5 8.75 37.3247 8.75 35.875V27.125Z" stroke="#623435" stroke-width="4"/>
</svg>
